<?xml version="1.0" standalone="no"?>
<!DOCTYPE svg PUBLIC "-//W3C//DTD SVG 20010904//EN"
 "http://www.w3.org/TR/2001/REC-SVG-20010904/DTD/svg10.dtd">
<svg version="1.0" xmlns="http://www.w3.org/2000/svg"
 width="150.000000pt" height="150.000000pt" viewBox="0 0 150.000000 150.000000"
 preserveAspectRatio="xMidYMid meet">

<g transform="translate(0.000000,150.000000) scale(0.100000,-0.100000)"
fill="#000000" stroke="none">
<path d="M558 1348 c-98 -44 -176 -84 -173 -87 2 -4 -6 -7 -18 -7 l-22 1 -3
-363 -2 -363 85 2 85 2 0 302 0 303 120 51 120 52 120 -52 120 -52 0 -84 0
-83 -95 0 -94 0 -3 79 -3 79 -87 -36 -88 -36 0 -133 0 -133 270 0 270 0 0 211
0 212 -30 -6 c-38 -8 -38 -4 2 22 l33 20 -35 15 c-19 8 -111 49 -204 90 -94
42 -175 76 -180 75 -6 0 -91 -37 -188 -81z m-152 -145 l41 -38 -41 0 c-28 1
-43 -4 -48 -15 -4 -8 -7 9 -7 38 -1 28 2 52 7 52 4 0 25 -17 48 -37z"/>
<path d="M620 620 l0 -90 270 0 270 0 0 90 0 90 -270 0 -270 0 0 -90z"/>
<path d="M203 450 c-46 -19 -57 -83 -20 -118 25 -24 57 -28 88 -12 32 18 22
31 -19 24 -43 -7 -66 11 -60 47 5 32 33 47 59 31 31 -20 47 1 18 22 -26 18
-34 19 -66 6z"/>
<path d="M340 447 c-52 -26 -49 -104 5 -129 29 -13 75 -2 83 20 3 10 -4 12
-32 7 -58 -11 -85 26 -52 71 13 17 18 18 45 7 38 -14 50 0 19 21 -27 19 -35
20 -68 3z"/>
<path d="M483 448 c-68 -33 -40 -138 37 -138 28 0 70 44 70 73 0 51 -61 88
-107 65z m65 -30 c7 -7 12 -21 12 -33 0 -44 -60 -63 -80 -26 -14 27 -13 37 6
55 18 19 45 21 62 4z"/>
<path d="M61 427 c-35 -92 -37 -149 -4 -99 9 12 23 22 33 22 10 0 24 -10 33
-22 26 -40 30 -12 7 56 -17 51 -26 66 -41 66 -11 0 -23 -10 -28 -23z m39 -43
c0 -8 -6 -14 -14 -14 -9 0 -12 7 -9 20 6 22 23 18 23 -6z"/>
<path d="M610 380 l0 -70 55 0 c30 0 55 -4 55 -10 0 -5 7 -10 15 -10 9 0 15 9
15 25 0 16 -6 25 -15 25 -12 0 -15 13 -15 55 0 30 -4 55 -10 55 -5 0 -10 -25
-10 -55 0 -54 0 -55 -30 -55 -30 0 -30 1 -30 55 0 42 -3 55 -15 55 -12 0 -15
-14 -15 -70z"/>
<path d="M770 380 c0 -85 12 -90 55 -22 l30 47 3 -47 c2 -34 7 -48 18 -48 11
0 14 16 14 70 0 60 -2 70 -18 70 -9 0 -28 -18 -42 -40 -14 -22 -27 -40 -30
-40 -3 0 -4 18 -2 40 3 32 1 40 -12 40 -13 0 -16 -12 -16 -70z"/>
<path d="M945 438 c-2 -7 -13 -38 -25 -68 -24 -66 -23 -60 -5 -60 8 0 19 8 24
19 13 24 46 22 65 -4 26 -35 29 -8 6 59 -17 51 -26 66 -41 66 -11 0 -22 -6
-24 -12z m35 -54 c0 -8 -6 -14 -14 -14 -9 0 -12 7 -9 20 6 22 23 18 23 -6z"/>
<path d="M1050 380 l0 -70 55 0 c30 0 55 -4 55 -10 0 -5 5 -10 10 -10 6 0 10
11 10 25 0 14 -4 25 -10 25 -5 0 -10 25 -10 55 0 42 -3 55 -15 55 -12 0 -15
-13 -15 -55 0 -52 -1 -55 -25 -55 -24 0 -25 3 -25 55 0 42 -3 55 -15 55 -12 0
-15 -14 -15 -70z"/>
<path d="M1210 380 c0 -41 4 -70 10 -70 6 0 25 21 43 46 l32 46 3 -47 c5 -72
26 -51 30 28 3 59 1 67 -15 67 -11 0 -29 -17 -43 -40 -14 -22 -28 -40 -32 -40
-5 0 -8 18 -8 40 0 22 -4 40 -10 40 -6 0 -10 -30 -10 -70z"/>
<path d="M1364 425 c-4 -17 -1 -32 9 -43 14 -15 13 -19 -5 -42 -30 -38 0 -40
33 -2 l28 31 3 -26 c2 -15 9 -28 16 -31 9 -3 12 15 12 67 l0 71 -45 0 c-39 0
-45 -3 -51 -25z m66 -15 c0 -21 -24 -28 -35 -10 -8 14 3 30 21 30 8 0 14 -9
14 -20z"/>
<path d="M743 245 c2 -5 12 -10 22 -10 10 0 20 5 22 10 2 6 -8 10 -22 10 -14
0 -23 -4 -22 -10z"/>
<path d="M272 214 c-25 -17 -29 -60 -9 -88 15 -20 78 -19 85 1 2 9 -5 11 -25
7 -36 -7 -58 15 -48 47 6 18 12 20 41 16 37 -6 45 6 15 23 -26 13 -33 13 -59
-6z"/>
<path d="M610 223 c-40 -14 -53 -69 -22 -96 53 -48 133 19 90 75 -15 19 -47
28 -68 21z m51 -39 c17 -21 0 -49 -31 -49 -31 0 -48 28 -31 49 8 9 21 16 31
16 10 0 23 -7 31 -16z"/>
<path d="M717 224 c-4 -4 -7 -31 -7 -61 0 -65 15 -69 53 -16 l27 38 0 -38 c0
-20 5 -37 10 -37 6 0 10 27 10 60 0 67 -12 72 -46 17 l-19 -32 -3 30 c-4 33
-14 49 -25 39z"/>
<path d="M846 223 c-3 -3 -6 -30 -6 -60 l0 -53 60 0 c33 0 60 -4 60 -10 0 -5
5 -10 10 -10 6 0 10 9 10 20 0 11 -4 20 -10 20 -5 0 -10 23 -10 51 0 31 -4 48
-10 44 -5 -3 -10 -26 -10 -51 0 -59 -18 -57 -22 4 -2 26 -7 47 -13 47 -5 0
-11 -21 -13 -47 -4 -61 -22 -63 -22 -4 0 43 -10 63 -24 49z"/>
<path d="M1060 189 l-30 -42 0 36 c0 21 -4 37 -10 37 -5 0 -10 -25 -10 -55 0
-30 4 -55 9 -55 5 0 21 15 35 33 l26 32 0 -32 c0 -23 5 -33 15 -33 11 0 15 13
15 54 0 30 -4 58 -10 61 -5 3 -23 -13 -40 -36z"/>
<path d="M1138 224 c-12 -11 -10 -114 2 -114 6 0 10 12 10 28 l1 27 23 -29
c31 -38 56 -31 26 7 l-22 28 23 25 c32 34 15 43 -20 10 l-29 -28 -4 27 c-2 15
-6 23 -10 19z"/>
<path d="M1265 205 c-29 -28 -31 -42 -9 -73 17 -25 74 -31 92 -9 24 30 23 56
-2 82 -31 31 -50 32 -81 0z m70 -40 c0 -27 -3 -30 -30 -30 -21 0 -31 5 -33 18
-6 33 6 49 35 45 24 -3 28 -8 28 -33z"/>
<path d="M35 211 c-7 -12 -1 -14 33 -11 12 1 22 -3 22 -9 0 -6 -7 -11 -15 -11
-8 0 -15 -4 -15 -9 0 -5 7 -11 15 -15 29 -11 16 -29 -16 -22 -22 4 -29 2 -26
-7 2 -6 19 -12 38 -12 l34 0 0 50 c0 49 -1 50 -32 53 -17 2 -34 -2 -38 -7z"/>
<path d="M147 168 c-17 -54 -15 -70 5 -50 16 16 55 15 61 0 2 -7 8 -10 12 -6
4 4 -1 29 -10 57 -23 69 -46 69 -68 -1z m39 -15 c-11 -11 -19 6 -11 24 8 17 8
17 12 0 3 -10 2 -21 -1 -24z"/>
<path d="M370 210 c0 -5 7 -10 15 -10 11 0 15 -12 15 -45 0 -25 5 -45 10 -45
6 0 10 19 10 41 0 28 6 46 18 55 15 12 12 13 -25 14 -24 0 -43 -4 -43 -10z"/>
<path d="M460 165 c0 -42 3 -55 15 -55 8 0 15 9 15 19 0 12 8 21 21 23 27 4
44 30 36 52 -4 11 -19 16 -47 16 l-40 0 0 -55z m63 20 c1 -5 -6 -11 -15 -13
-11 -2 -18 3 -18 13 0 17 30 18 33 0z"/>
<path d="M1390 166 l0 -56 39 0 c31 0 41 4 46 20 3 11 3 25 -1 32 -5 7 -8 22
-9 33 0 16 -8 21 -37 23 l-38 3 0 -55z m60 24 c0 -5 -9 -10 -20 -10 -11 0 -20
5 -20 10 0 6 9 10 20 10 11 0 20 -4 20 -10z m0 -45 c0 -8 -9 -15 -20 -15 -11
0 -20 7 -20 15 0 8 9 15 20 15 11 0 20 -7 20 -15z"/>
</g>
</svg>
