<svg width="40" height="40" viewBox="0 0 40 40" fill="none" xmlns="http://www.w3.org/2000/svg">
<g clip-path="url(#clip0_1_390)">
<g clip-path="url(#clip1_1_390)">
<path d="M20 40C31.0457 40 40 31.0457 40 20C40 8.9543 31.0457 0 20 0C8.9543 0 0 8.9543 0 20C0 31.0457 8.9543 40 20 40Z" fill="#878787"/>
<path d="M9 27.7143V20.9796C9 20.4745 9.10083 20.0162 9.3025 19.6046C9.50417 19.193 9.77 18.8282 10.1 18.5102V15.3673C10.1 14.432 10.4208 13.6369 11.0625 12.9821C11.7042 12.3274 12.4833 12 13.4 12H17.8C18.2217 12 18.6158 12.0797 18.9825 12.2391C19.3492 12.3985 19.6883 12.6181 20 12.898C20.3117 12.6173 20.6508 12.3977 21.0175 12.2391C21.3842 12.0804 21.7783 12.0007 22.2 12H26.6C27.5167 12 28.2958 12.3274 28.9375 12.9821C29.5792 13.6369 29.9 14.432 29.9 15.3673V18.5102C30.23 18.8282 30.4958 19.193 30.6975 19.6046C30.8992 20.0162 31 20.4745 31 20.9796V27.7143H28.8V25.4694H11.2V27.7143H9ZM21.1 17.6122H27.7V15.3673C27.7 15.0493 27.5944 14.7829 27.3832 14.5682C27.172 14.3534 26.9109 14.2456 26.6 14.2449H22.2C21.8883 14.2449 21.6273 14.3527 21.4168 14.5682C21.2063 14.7837 21.1007 15.0501 21.1 15.3673V17.6122ZM12.3 17.6122H18.9V15.3673C18.9 15.0493 18.7944 14.7829 18.5832 14.5682C18.372 14.3534 18.1109 14.2456 17.8 14.2449H13.4C13.0883 14.2449 12.8273 14.3527 12.6168 14.5682C12.4063 14.7837 12.3007 15.0501 12.3 15.3673V17.6122ZM11.2 23.2245H28.8V20.9796C28.8 20.6616 28.6944 20.3952 28.4832 20.1804C28.272 19.9656 28.0109 19.8579 27.7 19.8571H12.3C11.9883 19.8571 11.7273 19.9649 11.5168 20.1804C11.3063 20.3959 11.2007 20.6623 11.2 20.9796V23.2245Z" fill="white"/>
</g>
</g>
<defs>
<clipPath id="clip0_1_390">
<rect width="40" height="40" fill="white"/>
</clipPath>
<clipPath id="clip1_1_390">
<rect width="40" height="40" fill="white"/>
</clipPath>
</defs>
</svg>
