<svg width="40" height="40" viewBox="0 0 40 40" fill="none" xmlns="http://www.w3.org/2000/svg">
<g clip-path="url(#clip0_1_385)">
<g clip-path="url(#clip1_1_385)">
<path d="M20 40C31.0457 40 40 31.0457 40 20C40 8.9543 31.0457 0 20 0C8.9543 0 0 8.9543 0 20C0 31.0457 8.9543 40 20 40Z" fill="#878787"/>
<path fill-rule="evenodd" clip-rule="evenodd" d="M12.2222 11C11.6329 11 11.0676 11.2224 10.6509 11.6183C10.2341 12.0142 10 12.5512 10 13.1111V27.8889C10 28.4488 10.2341 28.9858 10.6509 29.3817C11.0676 29.7776 11.6329 30 12.2222 30H27.7778C28.3671 30 28.9324 29.7776 29.3491 29.3817C29.7659 28.9858 30 28.4488 30 27.8889V13.1111C30 12.5512 29.7659 12.0142 29.3491 11.6183C28.9324 11.2224 28.3671 11 27.7778 11H12.2222ZM21.1111 13.1111H27.7778V22.6111H21.1111V13.1111ZM18.8889 13.1111H12.2222V16.2778H18.8889V13.1111ZM18.8889 18.3889H12.2222V27.8889H18.8889V18.3889ZM21.1111 27.8889H27.7778V24.7222H21.1111V27.8889Z" fill="white"/>
</g>
</g>
<defs>
<clipPath id="clip0_1_385">
<rect width="40" height="40" fill="white"/>
</clipPath>
<clipPath id="clip1_1_385">
<rect width="40" height="40" fill="white"/>
</clipPath>
</defs>
</svg>
