<svg width="40" height="40" viewBox="0 0 40 40" fill="none" xmlns="http://www.w3.org/2000/svg">
<g clip-path="url(#clip0_1_400)">
<g clip-path="url(#clip1_1_400)">
<path d="M20 40C31.0457 40 40 31.0457 40 20C40 8.9543 31.0457 0 20 0C8.9543 0 0 8.9543 0 20C0 31.0457 8.9543 40 20 40Z" fill="#878787"/>
<path d="M12.9 9C12.6613 9 12.4324 9.09482 12.2636 9.2636C12.0948 9.43239 12 9.66131 12 9.9V23.7C12 24.4161 12.2845 25.1028 12.7908 25.6092C13.2972 26.1155 13.9839 26.4 14.7 26.4H17.4V30C17.4 30.7957 17.7161 31.5587 18.2787 32.1213C18.8413 32.6839 19.6044 33 20.4 33C21.1956 33 21.9587 32.6839 22.5213 32.1213C23.0839 31.5587 23.4 30.7957 23.4 30V26.4H26.1C26.4546 26.4 26.8057 26.3302 27.1332 26.1945C27.4608 26.0588 27.7585 25.8599 28.0092 25.6092C28.2599 25.3585 28.4588 25.0608 28.5945 24.7332C28.7302 24.4057 28.8 24.0546 28.8 23.7V9.9C28.8 9.66131 28.7052 9.43239 28.5364 9.2636C28.3676 9.09482 28.1387 9 27.9 9H12.9ZM13.8 19.8V10.8H21V12.9024C21 13.1411 21.0948 13.37 21.2636 13.5388C21.4324 13.7076 21.6613 13.8024 21.9 13.8024C22.1387 13.8024 22.3676 13.7076 22.5364 13.5388C22.7052 13.37 22.8 13.1411 22.8 12.9024V10.8H24V14.1012C24 14.3399 24.0948 14.5688 24.2636 14.7376C24.4324 14.9064 24.6613 15.0012 24.9 15.0012C25.1387 15.0012 25.3676 14.9064 25.5364 14.7376C25.7052 14.5688 25.8 14.3399 25.8 14.1012V10.8H27V19.8H13.8ZM13.8 23.7V21.6H27V23.7C27 23.9387 26.9052 24.1676 26.7364 24.3364C26.5676 24.5052 26.3387 24.6 26.1 24.6H22.5C22.2613 24.6 22.0324 24.6948 21.8636 24.8636C21.6948 25.0324 21.6 25.2613 21.6 25.5V30C21.6 30.3183 21.4736 30.6235 21.2485 30.8485C21.0235 31.0736 20.7183 31.2 20.4 31.2C20.0817 31.2 19.7765 31.0736 19.5515 30.8485C19.3264 30.6235 19.2 30.3183 19.2 30V25.5C19.2 25.2613 19.1052 25.0324 18.9364 24.8636C18.7676 24.6948 18.5387 24.6 18.3 24.6H14.7C14.4613 24.6 14.2324 24.5052 14.0636 24.3364C13.8948 24.1676 13.8 23.9387 13.8 23.7Z" fill="white"/>
</g>
</g>
<defs>
<clipPath id="clip0_1_400">
<rect width="40" height="40" fill="white"/>
</clipPath>
<clipPath id="clip1_1_400">
<rect width="40" height="40" fill="white"/>
</clipPath>
</defs>
</svg>
