<svg width="40" height="40" viewBox="0 0 40 40" fill="none" xmlns="http://www.w3.org/2000/svg">
<g clip-path="url(#clip0_1_395)">
<g clip-path="url(#clip1_1_395)">
<path d="M20 40C31.0457 40 40 31.0457 40 20C40 8.9543 31.0457 0 20 0C8.9543 0 0 8.9543 0 20C0 31.0457 8.9543 40 20 40Z" fill="#878787"/>
<path d="M16 31H24V28.375C26.41 26.6635 28 23.776 28 20.5V12.1C28 11.543 27.7893 11.0089 27.4142 10.6151C27.0391 10.2212 26.5304 10 26 10H22C21.4696 10 20.9609 10.2212 20.5858 10.6151C20.2107 11.0089 20 11.543 20 12.1V20.5H10C10 23.7445 12 26.8 16 28.375V31ZM12.29 22.6H25.71C25.4291 23.5883 24.9537 24.5036 24.3146 25.2868C23.6756 26.0699 22.887 26.7035 22 27.1465V28.9H18V27.1465C16 26.8 12.86 24.6055 12.29 22.6ZM22 12.1H26V20.5H22V12.1ZM23 13.15V16.3H25V13.15H23Z" fill="white"/>
</g>
</g>
<defs>
<clipPath id="clip0_1_395">
<rect width="40" height="40" fill="white"/>
</clipPath>
<clipPath id="clip1_1_395">
<rect width="40" height="40" fill="white"/>
</clipPath>
</defs>
</svg>
