<svg width="40" height="40" viewBox="0 0 40 40" fill="none" xmlns="http://www.w3.org/2000/svg">
<g clip-path="url(#clip0_1_380)">
<g clip-path="url(#clip1_1_380)">
<path d="M20 40C31.0457 40 40 31.0457 40 20C40 8.9543 31.0457 0 20 0C8.9543 0 0 8.9543 0 20C0 31.0457 8.9543 40 20 40Z" fill="#878787"/>
<path d="M21.738 16V27H18.988V20.576L16.194 24.976H15.842L13.026 20.532V27H10.298V16H13.092L16.018 20.62L18.944 16H21.738ZM30.5703 20.7051H23.6201V18.9004L26.0264 16.5479C26.7568 15.8317 27.2223 15.3161 27.4229 15.001C27.6305 14.6787 27.7344 14.3385 27.7344 13.9805C27.7344 13.7083 27.6484 13.5007 27.4766 13.3574C27.3047 13.2142 27.0755 13.1426 26.7891 13.1426C26.209 13.1426 25.5645 13.4577 24.8555 14.0879L23.5342 12.4551C24.5869 11.5312 25.79 11.0693 27.1436 11.0693C28.1247 11.0693 28.8981 11.3092 29.4639 11.7891C30.0296 12.2617 30.3125 12.917 30.3125 13.7549C30.3125 14.3636 30.1442 14.9365 29.8076 15.4736C29.471 16.0107 28.8408 16.6982 27.917 17.5361L26.7891 18.5566H30.5703V20.7051Z" fill="white"/>
</g>
</g>
<defs>
<clipPath id="clip0_1_380">
<rect width="40" height="40" fill="white"/>
</clipPath>
<clipPath id="clip1_1_380">
<rect width="40" height="40" fill="white"/>
</clipPath>
</defs>
</svg>
