<svg width="40" height="40" viewBox="0 0 40 40" fill="none" xmlns="http://www.w3.org/2000/svg">
<g clip-path="url(#clip0_1_406)">
<path d="M20 40C31.0457 40 40 31.0457 40 20C40 8.9543 31.0457 0 20 0C8.9543 0 0 8.9543 0 20C0 31.0457 8.9543 40 20 40Z" fill="#878787"/>
<path d="M20 9C26.0753 9 31 13.9247 31 20C31 26.0753 26.0753 31 20 31C13.9247 31 9 26.0753 9 20C9 13.9247 13.9247 9 20 9ZM20 11.2C17.6661 11.2 15.4278 12.1271 13.7775 13.7775C12.1271 15.4278 11.2 17.6661 11.2 20C11.2 22.3339 12.1271 24.5722 13.7775 26.2225C15.4278 27.8729 17.6661 28.8 20 28.8C22.3339 28.8 24.5722 27.8729 26.2225 26.2225C27.8729 24.5722 28.8 22.3339 28.8 20C28.8 17.6661 27.8729 15.4278 26.2225 13.7775C24.5722 12.1271 22.3339 11.2 20 11.2ZM20 13.4C20.2694 13.4 20.5295 13.499 20.7308 13.678C20.9321 13.857 21.0608 14.1037 21.0923 14.3713L21.1 14.5V19.5446L24.0777 22.5223C24.275 22.7203 24.3895 22.9859 24.3981 23.2652C24.4066 23.5446 24.3085 23.8167 24.1236 24.0263C23.9388 24.2359 23.6811 24.3673 23.4029 24.3938C23.1247 24.4203 22.8468 24.34 22.6257 24.169L22.5223 24.0777L19.2223 20.7777C19.0513 20.6066 18.9415 20.3839 18.9099 20.1441L18.9 20V14.5C18.9 14.2083 19.0159 13.9285 19.2222 13.7222C19.4285 13.5159 19.7083 13.4 20 13.4Z" fill="white"/>
</g>
<defs>
<clipPath id="clip0_1_406">
<rect width="40" height="40" fill="white"/>
</clipPath>
</defs>
</svg>
