<?xml version="1.0" standalone="no"?>
<!DOCTYPE svg PUBLIC "-//W3C//DTD SVG 20010904//EN"
 "http://www.w3.org/TR/2001/REC-SVG-20010904/DTD/svg10.dtd">
<svg version="1.0" xmlns="http://www.w3.org/2000/svg"
 width="280.000000pt" height="87.000000pt" viewBox="0 0 280.000000 87.000000"
 preserveAspectRatio="xMidYMid meet">

<g transform="translate(0.000000,87.000000) scale(0.100000,-0.100000)"
fill="#000000" stroke="none">
<path d="M556 805 c-3 -8 -12 -15 -20 -15 -9 0 -13 -9 -11 -25 1 -14 -2 -25
-7 -25 -5 0 -7 -4 -3 -9 3 -6 0 -13 -7 -18 -20 -12 -38 -54 -40 -93 -2 -19
-11 -42 -20 -51 -10 -9 -15 -19 -11 -23 3 -3 2 -6 -4 -6 -5 0 -8 -14 -5 -30 2
-17 -1 -37 -8 -45 -10 -12 -9 -15 4 -15 9 0 16 -8 16 -17 0 -16 1 -16 13 0 6
10 29 20 50 24 32 5 37 3 37 -13 0 -15 2 -16 9 -5 8 12 12 12 25 2 13 -11 16
-11 16 0 0 12 2 12 9 1 6 -10 9 -8 13 10 5 29 -1 50 -12 43 -5 -3 -12 0 -16 6
-4 8 -3 9 4 5 15 -9 15 -1 0 23 -9 16 -8 27 7 60 16 37 17 47 5 95 -14 61 -11
72 25 79 29 5 55 -15 55 -42 0 -20 24 -44 54 -55 16 -6 18 -13 13 -59 -5 -38
-4 -48 4 -37 9 13 10 13 6 0 -2 -8 -9 -15 -15 -15 -17 0 -41 -37 -42 -65 0
-14 -15 -55 -34 -90 -19 -36 -44 -98 -56 -138 -12 -39 -24 -72 -27 -72 -7 0 4
151 14 194 l6 29 -21 -21 c-11 -11 -40 -26 -62 -33 -23 -7 -44 -18 -46 -24 -3
-6 7 -63 21 -128 14 -64 25 -119 25 -122 0 -3 50 -5 110 -5 89 0 112 -3 116
-15 5 -12 25 -15 91 -15 l86 0 -7 122 c-8 142 -20 205 -44 231 -13 15 -25 17
-64 12 -54 -8 -98 12 -98 43 0 14 11 18 57 20 32 1 61 6 65 10 3 4 8 23 9 43
3 34 -15 74 -47 106 -7 7 -10 22 -7 33 3 11 3 25 0 32 -2 7 -5 17 -5 21 -1 5
-12 17 -26 28 -15 11 -26 28 -26 37 0 14 -2 14 -9 3 -7 -11 -12 -10 -27 5 -20
20 -41 24 -62 10 -8 -5 -18 -4 -25 3 -16 16 -44 14 -51 -4z m45 -41 c-20 -14
-22 -23 -18 -58 4 -28 3 -35 -3 -21 -5 11 -9 29 -9 39 -1 21 26 56 43 56 6 0
0 -7 -13 -16z m96 -46 c-3 -8 -6 -5 -6 6 -1 11 2 17 5 13 3 -3 4 -12 1 -19z
m28 -36 c-3 -3 -11 0 -18 7 -9 10 -8 11 6 5 10 -3 15 -9 12 -12z m-128 -59
c-3 -10 -5 -4 -5 12 0 17 2 24 5 18 2 -7 2 -21 0 -30z m170 -5 c-3 -8 -6 -5
-6 6 -1 11 2 17 5 13 3 -3 4 -12 1 -19z m-39 -98 c-7 -10 -14 -17 -17 -15 -4
4 18 35 25 35 2 0 -1 -9 -8 -20z"/>
<path d="M610 550 c0 -5 9 -10 19 -10 11 0 23 5 26 10 4 6 -5 10 -19 10 -14 0
-26 -4 -26 -10z"/>
<path d="M1181 406 c-16 -19 -10 -148 7 -154 9 -3 12 18 12 82 0 47 -2 86 -4
86 -2 0 -9 -6 -15 -14z"/>
<path d="M1230 406 c0 -9 7 -16 15 -16 11 0 15 -16 17 -67 2 -42 8 -68 16 -71
9 -3 12 15 12 66 0 63 2 71 20 74 41 6 24 23 -27 26 -43 2 -53 0 -53 -12z"/>
<path d="M1369 391 c-17 -18 -29 -40 -29 -56 0 -32 49 -85 79 -85 35 0 70 22
80 51 10 29 10 29 -30 29 -21 0 -39 -4 -39 -10 0 -5 9 -10 21 -10 31 0 18 -24
-15 -28 -33 -4 -66 22 -66 53 0 28 30 55 60 55 13 0 32 -7 42 -17 17 -15 18
-15 18 5 0 48 -77 56 -121 13z"/>
<path d="M1541 406 c-16 -19 -10 -148 7 -154 9 -3 12 18 12 82 0 47 -2 86 -4
86 -2 0 -9 -6 -15 -14z"/>
<path d="M1603 413 c-18 -7 -18 -166 0 -161 6 3 14 18 17 34 l5 29 23 -33 c13
-17 30 -32 38 -32 18 0 18 9 -3 32 -15 17 -15 19 0 36 47 52 -13 123 -80 95z
m62 -53 c0 -18 -6 -26 -22 -28 -20 -3 -23 1 -23 28 0 27 3 31 23 28 16 -2 22
-10 22 -28z"/>
<path d="M1868 409 c-27 -15 -22 -46 12 -76 17 -14 30 -32 30 -40 0 -15 -36
-18 -45 -3 -9 15 -25 12 -25 -5 0 -24 45 -40 75 -27 35 16 33 54 -5 85 -16 14
-30 31 -30 38 0 7 10 9 30 6 34 -7 40 7 11 23 -24 12 -31 12 -53 -1z"/>
<path d="M1989 391 c-16 -16 -29 -39 -29 -50 0 -70 73 -114 128 -75 29 20 19
37 -13 22 -71 -32 -119 54 -52 96 12 7 25 7 47 -1 24 -9 30 -9 30 3 0 16 -31
34 -60 34 -12 0 -35 -13 -51 -29z"/>
<path d="M2142 408 c-17 -21 -12 -150 6 -156 8 -2 12 8 12 32 0 33 2 36 30 36
28 0 30 -3 30 -36 0 -24 4 -34 13 -31 8 2 12 28 12 82 0 54 -4 80 -12 83 -9 2
-13 -8 -13 -32 0 -33 -2 -36 -29 -36 -27 0 -30 3 -33 37 -3 31 -5 34 -16 21z"/>
<path d="M2306 398 c-15 -13 -29 -37 -32 -55 -5 -27 -1 -37 24 -63 19 -18 41
-30 57 -30 16 0 38 12 57 30 25 26 29 36 24 63 -7 38 -48 77 -81 77 -13 0 -35
-10 -49 -22z m86 -25 c34 -31 11 -93 -35 -93 -27 0 -57 28 -57 53 0 48 56 73
92 40z"/>
<path d="M2505 408 c-75 -41 -50 -158 35 -158 82 0 112 118 39 155 -33 18 -47
18 -74 3z m66 -28 c22 -12 27 -68 7 -88 -15 -15 -61 -15 -76 0 -17 17 -15 64
4 82 18 19 38 20 65 6z"/>
<path d="M2656 413 c-3 -3 -6 -42 -6 -85 l0 -78 40 0 c46 0 58 27 14 32 -26 3
-27 5 -26 66 0 58 -7 80 -22 65z"/>
<path d="M1070 400 c0 -5 -10 -18 -22 -30 -18 -17 -19 -20 -5 -20 22 0 22 -16
0 -29 -10 -6 -12 -11 -5 -11 7 0 12 -13 12 -31 0 -17 4 -28 10 -24 6 3 10 17
10 31 0 13 5 24 10 24 6 0 10 -14 10 -31 0 -17 4 -28 10 -24 6 3 10 15 10 26
0 11 7 22 15 25 8 4 15 10 15 16 0 5 -4 6 -10 3 -5 -3 -10 0 -10 9 0 8 6 17
13 20 9 4 9 8 1 11 -7 3 -10 15 -7 25 3 11 1 20 -5 20 -5 0 -12 -9 -15 -20 -3
-11 -11 -20 -17 -20 -7 0 -10 8 -7 20 3 11 1 20 -4 20 -5 0 -9 -4 -9 -10z m30
-59 c0 -6 -4 -13 -10 -16 -5 -3 -10 1 -10 9 0 9 5 16 10 16 6 0 10 -4 10 -9z"/>
<path d="M1730 330 l0 -80 40 0 c29 0 40 4 40 15 0 9 -9 15 -25 15 -24 0 -25
2 -25 65 0 51 -3 65 -15 65 -12 0 -15 -16 -15 -80z"/>
<path d="M1032 88 l1 -43 4 38 c3 29 9 37 24 37 15 0 19 -7 19 -35 0 -19 5
-35 10 -35 6 0 10 18 10 40 0 39 -1 40 -35 40 -35 0 -35 0 -33 -42z"/>
<path d="M1140 88 c1 -34 3 -39 11 -25 5 9 16 17 23 17 16 0 29 27 20 41 -3 5
-16 9 -30 9 -22 0 -24 -4 -24 -42z m45 23 c7 -12 -12 -24 -25 -16 -11 7 -4 25
10 25 5 0 11 -4 15 -9z"/>
<path d="M1240 111 c-16 -31 4 -63 37 -59 55 7 55 69 0 76 -18 2 -29 -3 -37
-17z m59 -5 c15 -18 3 -46 -20 -46 -22 0 -34 22 -25 45 7 19 30 19 45 1z"/>
<path d="M1364 116 c-3 -8 -4 -25 -2 -38 2 -19 10 -23 38 -25 34 -1 34 -1 5 5
-23 6 -30 13 -30 32 0 21 5 25 27 25 14 -1 24 3 22 7 -9 14 -54 9 -60 -6z"/>
<path d="M1467 122 c6 -4 13 -23 16 -42 l4 -35 1 37 c2 25 7 38 20 41 9 3 1 5
-18 6 -19 0 -30 -3 -23 -7z"/>
<path d="M1550 111 c-16 -31 4 -63 37 -59 55 7 55 69 0 76 -18 2 -29 -3 -37
-17z m64 -6 c8 -23 -4 -45 -25 -45 -11 0 -22 7 -25 15 -9 23 3 45 25 45 10 0
21 -7 25 -15z"/>
<path d="M1740 115 c-7 -8 -10 -25 -6 -40 5 -20 13 -25 36 -25 36 0 56 30 40
60 -13 24 -52 26 -70 5z m55 -25 c0 -16 -6 -26 -19 -28 -25 -5 -39 12 -31 38
10 31 50 24 50 -10z"/>
<path d="M1920 110 c-16 -30 4 -60 38 -59 l27 1 -25 7 c-18 5 -25 14 -25 31 0
17 7 26 25 31 l25 7 -27 1 c-18 1 -31 -6 -38 -19z"/>
<path d="M2028 90 c-2 -22 0 -40 4 -40 5 0 8 16 8 35 0 28 4 35 19 35 15 0 21
-8 24 -37 l4 -38 1 43 c2 40 1 42 -27 42 -26 0 -29 -3 -33 -40z"/>
<path d="M2140 110 c-16 -30 4 -60 40 -60 23 0 31 5 36 25 4 15 1 32 -6 40
-18 21 -57 19 -70 -5z m65 -10 c8 -26 -1 -40 -26 -40 -22 0 -34 22 -25 45 8
22 44 18 51 -5z"/>
<path d="M2260 126 c0 -2 8 -10 18 -17 15 -13 16 -12 3 4 -13 16 -21 21 -21
13z"/>
<path d="M2297 113 c-4 -10 -14 -29 -24 -43 l-17 -25 22 19 c19 17 22 17 22 3
0 -10 5 -17 11 -17 6 0 9 7 5 15 -3 8 -1 15 5 15 5 0 12 -7 15 -15 4 -8 11
-15 17 -15 5 0 2 9 -8 20 -17 19 -17 21 0 40 11 12 13 20 6 20 -6 0 -14 -7
-17 -15 -4 -8 -10 -15 -15 -15 -4 0 -6 7 -3 15 4 8 2 15 -4 15 -5 0 -12 -8
-15 -17z"/>
<path d="M2400 90 c0 -22 5 -40 10 -40 6 0 10 9 10 20 0 29 37 27 43 -2 2 -13
4 -3 4 22 1 25 -1 37 -4 28 -5 -22 -43 -24 -43 -3 0 8 -4 15 -10 15 -5 0 -10
-18 -10 -40z"/>
<path d="M2524 116 c-3 -8 -4 -25 -2 -38 2 -19 9 -23 38 -23 29 0 36 4 38 23
2 13 -2 30 -8 38 -16 18 -59 18 -66 0z m61 -26 c0 -18 -6 -26 -23 -28 -24 -4
-38 18 -28 44 3 9 15 14 28 12 17 -2 23 -10 23 -28z"/>
<path d="M2647 109 c-4 -13 -7 -33 -6 -44 0 -17 2 -16 10 5 9 23 11 23 20 7
10 -17 29 -15 29 4 0 6 -4 8 -10 4 -5 -3 -15 6 -23 21 l-14 27 -6 -24z"/>
<path d="M2707 117 c-4 -10 0 -30 8 -45 12 -22 14 -24 14 -7 -1 11 -4 31 -8
45 -6 22 -8 23 -14 7z"/>
</g>
</svg>
