<?xml version="1.0" encoding="UTF-8" standalone="no"?>
<svg xmlns:dc="http://purl.org/dc/elements/1.1/" xmlns:cc="http://creativecommons.org/ns#" xmlns:rdf="http://www.w3.org/1999/02/22-rdf-syntax-ns#" xmlns:svg="http://www.w3.org/2000/svg" xmlns="http://www.w3.org/2000/svg" viewBox="0 0 1440 1440" height="1440" width="1440" xml:space="preserve" id="svg2" version="1.1">
  <metadata id="metadata8"></metadata>
  <defs id="defs6">
    <clipPath id="clipPath18">
      <path id="path16" d="M 0,1080 H 1080 V 0 H 0 Z"></path>
    </clipPath>
  </defs>
  <g transform="matrix(1.3333333,0,0,-1.3333333,0,1440)" id="g10">
    <g id="g12">
      <g clip-path="url(#clipPath18)" id="g14">
        <g transform="translate(272.9893,215.605)" id="g20">
          <path id="path22" style="fill:#3a3a3a;fill-opacity:1;fill-rule:nonzero;stroke:none" d="M 0,0 2.096,14.028 H -12.095 L -14.19,0 Z M -48.536,-14.835 -46.439,0 h 17.414 l 2.096,14.028 h -17.576 c 0.484,7.418 4.514,14.835 12.255,14.835 h 7.417 l 3.547,24.027 c 0.968,6.289 5.322,9.352 12.095,9.352 1.289,0 2.579,-0.161 4.031,-0.323 L -9.837,28.863 H 4.353 L 9.191,61.919 H 24.187 L 19.35,28.863 H 35.152 L 33.056,14.028 H 17.092 L 15.157,0 H 31.121 C 29.992,-8.546 25.639,-14.835 19.026,-14.835 H 12.899 L 8.868,-42.247 c -1.129,-7.901 -8.385,-8.385 -16.286,-8.385 l 5.321,35.797 h -14.35 l -5.16,-35.797 h -14.997 l 5.321,35.797 z"></path>
        </g>
        <g transform="translate(324.2617,260.916)" id="g24">
          <path id="path26" style="fill:#3a3a3a;fill-opacity:1;fill-rule:nonzero;stroke:none" d="m 0,0 c 0,9.514 6.449,17.253 17.415,17.253 1.45,0 2.902,0 4.354,-0.322 V -95.943 H 0 Z"></path>
        </g>
        <g transform="translate(362.1523,277.8472)" id="g28">
          <path id="path30" style="fill:#3a3a3a;fill-opacity:1;fill-rule:nonzero;stroke:none" d="m 0,0 h 77.237 c 0,-13.223 -8.223,-19.995 -17.576,-19.995 h -12.9 v -92.88 H 24.993 v 92.88 l -24.993,0 z"></path>
        </g>
        <g transform="translate(571.7637,260.916)" id="g32">
          <path id="path34" style="fill:#3a3a3a;fill-opacity:1;fill-rule:nonzero;stroke:none" d="m 0,0 c 0,9.514 6.449,17.253 17.414,17.253 1.451,0 2.902,0 4.355,-0.322 V -95.943 H 0 Z"></path>
        </g>
        <g transform="translate(707.3633,257.6909)" id="g36">
          <path id="path38" style="fill:#3a3a3a;fill-opacity:1;fill-rule:nonzero;stroke:none" d="m 0,0 c 0,11.449 7.579,20.478 18.544,20.478 0.968,0 2.097,-0.161 3.226,-0.322 v -92.719 h 38.215 v -20.155 l -59.985,0 z"></path>
        </g>
        <g transform="translate(779.4375,189.6436)" id="g40">
          <path id="path42" style="fill:#3a3a3a;fill-opacity:1;fill-rule:nonzero;stroke:none" d="m 0,0 16.125,12.255 c 4.354,-8.868 15.318,-18.382 25.8,-18.382 6.771,0 12.416,3.225 12.416,9.352 -0.161,17.254 -44.021,30.96 -44.021,59.662 0,16.126 14.673,26.929 31.282,26.929 12.9,0 31.444,-5.966 31.444,-19.995 0,-4.999 -2.419,-9.675 -7.74,-13.223 -5.323,10.32 -13.384,13.062 -20.318,13.062 -7.094,0 -12.9,-3.387 -12.9,-9.031 0,-13.222 44.021,-27.25 44.021,-56.436 0,-16.125 -12.093,-30.96 -33.54,-30.96 C 24.187,-26.767 8.224,-16.125 0,0"></path>
        </g>
        <g transform="translate(650.2861,219.4746)" id="g44">
          <path id="path46" style="fill:#3a3a3a;fill-opacity:1;fill-rule:nonzero;stroke:none" d="M 0,0 H -17.253 V 38.216 H 1.129 c 12.578,0 17.899,-8.868 17.899,-18.544 C 19.028,9.03 12.416,0 0,0 m 16.287,-18.705 c 15.641,5.967 24.187,23.221 24.187,39.829 0,19.027 -11.126,37.249 -36.443,37.249 H -20.8 c -13.061,0 -18.221,-8.063 -18.221,-19.834 v -93.041 h 21.768 v 44.381 l 3.869,-4.713 31.606,-39.668 h 25.962 z"></path>
        </g>
        <g transform="translate(555.3223,222.0552)" id="g48">
          <path id="path50" style="fill:#3a3a3a;fill-opacity:1;fill-rule:nonzero;stroke:none" d="m 0,0 h -53.696 v -19.995 h 29.831 c -3.87,-12.417 -14.19,-19.189 -29.025,-19.189 -23.058,0 -40.472,16.609 -40.472,38.055 0,24.187 17.414,38.216 40.633,38.216 17.416,0 34.185,-9.352 38.055,-21.607 4.999,3.87 6.289,9.997 6.289,14.834 0,15.319 -21.123,27.735 -45.311,27.735 -34.829,0 -61.436,-25.961 -61.436,-58.372 0,-32.572 25.8,-59.5 59.662,-59.5 33.701,0 58.533,26.121 55.47,59.823"></path>
        </g>
        <g transform="translate(633.4434,633.3481)" id="g52">
          <path id="path54" style="fill:#f8d2ca;fill-opacity:1;fill-rule:nonzero;stroke:none" d="m 0,0 c -0.309,-1.875 -0.694,-3.806 -1.184,-5.812 -0.949,-3.895 -2.898,-8.009 -5.549,-11.311 -0.025,-0.03 -0.051,-0.057 -0.078,-0.085 l -9.233,-142.736 C 8.372,-68.224 46.149,-9.008 56.646,6.303 53.595,11.372 52.012,17.27 51.681,23.235 43.856,14.99 29.286,6.138 0,0"></path>
        </g>
        <g transform="translate(685.124,656.583)" id="g56">
          <path id="path58" style="fill:#c6aaa7;fill-opacity:1;fill-rule:nonzero;stroke:none" d="m 0,0 c -0.174,3.129 -0.003,6.271 0.483,9.322 -11.254,-7.367 -23.82,-11.508 -36.732,-11.508 -5.564,0 -10.995,0.776 -16.244,2.25 1.769,-6.549 2.313,-14.173 0.812,-23.299 C -22.395,-17.097 -7.824,-8.245 0,0"></path>
        </g>
        <g transform="translate(626.5732,616.0732)" id="g60">
          <path id="path62" style="fill:#c6aaa7;fill-opacity:1;fill-rule:nonzero;stroke:none" d="m 0,0 -1.259,-1.266 c -26.085,-109.836 -19.053,-173.45 -18.368,-187.458 3.038,16.142 6.579,31.503 10.453,46.055 L 0.06,0.067 C 0.04,0.044 0.021,0.021 0,0"></path>
        </g>
        <g transform="translate(612.8643,403.3115)" id="g64">
          <path id="path66" style="fill:#e43a56;fill-opacity:1;fill-rule:nonzero;stroke:none" d="M 0,0 0.001,0.015 C -0.001,0.016 -0.003,0.016 -0.005,0.016 Z"></path>
        </g>
        <g transform="translate(612.8643,403.3115)" id="g68">
          <path id="path70" style="fill:#e43a56;fill-opacity:1;fill-rule:nonzero;stroke:none" d="m 0,0 -0.005,0.016 c 0.002,0 0.004,0 0.006,-0.001 z m 242.595,43.05 c -2.078,29.097 -3.074,58.4 -8.59,87.118 -4.52,23.522 -10.074,61.316 -35.328,72.13 -23.427,10.032 -49.403,-6.892 -73.603,-1.881 -15.112,3.129 -27.887,13.186 -36.994,25.422 -3.168,1.756 -5.834,3.964 -8.007,6.516 -1.066,1.253 -2.009,2.589 -2.848,3.985 C 66.729,221.029 28.951,161.813 4.535,70.093 0.661,55.541 -2.88,40.18 -5.918,24.038 -6.604,38.046 -13.635,101.66 12.45,211.496 l -0.042,-0.043 c -0.212,-0.224 -0.426,-0.445 -0.644,-0.661 -0.098,-0.096 -0.196,-0.193 -0.295,-0.288 -0.042,-0.041 -0.083,-0.083 -0.126,-0.124 l -0.254,-0.735 c -7.961,-18.003 -25.506,-32.943 -42.59,-40.916 -20.21,-9.431 -45.301,-10.396 -61.763,-26.89 -0.74,-0.742 -1.444,-1.507 -2.125,-2.289 l 41.696,-194.527 h 159.107 c 5.693,0 10.309,-4.615 10.309,-10.309 0,-5.693 -4.616,-10.309 -10.309,-10.309 h 39.607 86.654 c 7.016,0 12.787,5.561 13.016,12.574 1.155,35.356 0.421,70.796 -2.096,106.071"></path>
        </g>
        <g transform="translate(670.5791,708.1191)" id="g72">
          <path id="path74" style="fill:#e7405d;fill-opacity:1;fill-rule:nonzero;stroke:none" d="m 0,0 -0.206,-0.016 c -0.926,-0.053 -4.918,-0.066 -10.356,3.034 -6.227,3.549 -9.206,3.904 -17.058,1.597 -7.854,2.307 -10.83,1.952 -17.06,-1.597 -5.44,-3.102 -9.433,-3.087 -10.356,-3.034 L -55.24,0 c 0,0 6.59,-8.755 16.277,-13.33 3.424,-1.616 7.231,-2.715 11.275,-2.715 5.966,0 11.441,2.383 15.921,5.31 C -4.614,-6.062 0,0 0,0"></path>
        </g>
        <g transform="translate(752.1133,327.7598)" id="g76">
          <path id="path78" style="fill:#ce2949;fill-opacity:1;fill-rule:nonzero;stroke:none" d="m 0,0 h 5.771 l 3.64,150.972 -5.764,0.132 z"></path>
        </g>
        <g transform="translate(626.71,616.2251)" id="g80">
          <path id="path82" style="fill:#ea5d80;fill-opacity:1;fill-rule:nonzero;stroke:none" d="M 0,0 C 2.651,3.302 4.601,7.417 5.55,11.312 4.593,7.385 2.62,3.42 -0.064,0.105 l -0.013,-0.19 C -0.051,-0.057 -0.024,-0.03 0,0"></path>
        </g>
        <g transform="translate(626.6328,616.1401)" id="g84">
          <path id="path86" style="fill:#ea5d80;fill-opacity:1;fill-rule:nonzero;stroke:none" d="m 0,0 0.013,0.19 c -0.426,-0.525 -0.87,-1.032 -1.33,-1.522 0,-10e-4 0,-10e-4 -0.001,-10e-4 l 1.258,1.266 C -0.038,-0.045 -0.02,-0.022 0,0"></path>
        </g>
        <g transform="translate(658.8125,697.3843)" id="g88">
          <path id="path90" style="fill:#f8d2ca;fill-opacity:1;fill-rule:nonzero;stroke:none" d="m 0,0 c -4.48,-2.927 -9.955,-5.311 -15.922,-5.311 -4.044,0 -7.85,1.1 -11.274,2.716 -9.688,4.574 -16.277,13.33 -16.277,13.33 l 0.203,-0.016 c 0.923,-0.053 4.916,-0.068 10.357,3.033 6.229,3.55 9.206,3.905 17.059,1.598 7.853,2.307 10.832,1.952 17.059,-1.598 5.438,-3.099 9.43,-3.086 10.356,-3.033 l 0.207,0.016 C 11.768,10.735 7.152,4.672 0,0 m 30.125,-20.533 c 1.104,2.348 2.415,4.517 3.938,6.408 0.076,0.093 0.157,0.176 0.233,0.268 3.964,5.338 8.892,10.298 12.471,15.589 5.673,8.389 10.543,17.35 14.113,26.838 4.024,10.693 6.35,22.092 6.377,33.535 0.007,3.07 -0.281,6.165 -0.577,9.216 -0.451,4.669 -0.965,9.525 -2.492,13.985 -0.434,1.269 -1.02,2.983 -2.236,3.729 -0.642,0.394 -1.627,0.205 -2.354,0.288 -0.886,0.1 -1.76,0.283 -2.619,0.517 -1.643,0.446 -3.276,1.096 -4.831,1.702 -3.207,1.25 -6.314,2.761 -9.291,4.488 -3.687,2.14 -7.178,4.622 -10.389,7.427 -3.682,3.216 -6.989,6.86 -9.795,10.865 -3.186,4.549 -5.705,9.549 -7.502,14.803 -0.646,1.888 -1.187,3.808 -1.65,5.746 -0.084,0.351 -0.17,0.701 -0.25,1.058 -0.067,0.303 -0.128,0.607 -0.191,0.911 -0.098,0.465 -0.191,0.933 -0.279,1.407 -0.049,0.264 -0.096,0.529 -0.142,0.794 -0.09,0.516 -0.174,1.037 -0.252,1.563 -0.036,0.238 -0.072,0.477 -0.106,0.716 -0.077,0.552 -0.147,1.111 -0.211,1.674 -0.026,0.217 -0.054,0.435 -0.077,0.652 -0.063,0.591 -0.117,1.191 -0.166,1.794 -0.016,0.187 -0.035,0.374 -0.049,0.561 -0.059,0.779 -0.107,1.566 -0.143,2.365 -0.783,17.722 -19.765,14.78 -19.765,14.78 0,0 -45.138,1.612 -34.66,-30.628 10.478,-32.242 24.987,-74.96 -1.612,-105.589 -22.844,-26.305 2.627,-34.834 14.483,-58.09 0.011,-0.024 0.023,-0.048 0.035,-0.071 1.481,-2.917 2.753,-6.061 3.682,-9.505 5.249,-1.474 10.681,-2.25 16.245,-2.25 12.912,0 25.478,4.14 36.732,11.508 0.518,3.254 1.392,6.398 2.589,9.302 0.229,0.554 0.476,1.102 0.741,1.644"></path>
        </g>
        <g transform="translate(670.6104,843.3857)" id="g92">
          <path id="path94" style="fill:#ea5d80;fill-opacity:1;fill-rule:nonzero;stroke:none" d="M 0,0 C 0.014,-0.187 0.033,-0.374 0.049,-0.561 0.033,-0.373 0.014,-0.189 0,0"></path>
        </g>
        <g transform="translate(670.8252,841.0308)" id="g96">
          <path id="path98" style="fill:#ea5d80;fill-opacity:1;fill-rule:nonzero;stroke:none" d="M 0,0 C 0.023,-0.218 0.052,-0.435 0.077,-0.652 0.052,-0.435 0.023,-0.22 0,0"></path>
        </g>
        <g transform="translate(671.1133,838.7041)" id="g100">
          <path id="path102" style="fill:#ea5d80;fill-opacity:1;fill-rule:nonzero;stroke:none" d="M 0,0 C 0.034,-0.239 0.07,-0.478 0.106,-0.716 0.07,-0.479 0.034,-0.241 0,0"></path>
        </g>
        <g transform="translate(671.4717,836.4253)" id="g104">
          <path id="path106" style="fill:#ea5d80;fill-opacity:1;fill-rule:nonzero;stroke:none" d="M 0,0 C 0.046,-0.265 0.093,-0.53 0.142,-0.794 0.093,-0.531 0.046,-0.266 0,0"></path>
        </g>
        <g transform="translate(671.8926,834.2241)" id="g108">
          <path id="path110" style="fill:#ea5d80;fill-opacity:1;fill-rule:nonzero;stroke:none" d="M 0,0 C 0.062,-0.304 0.124,-0.608 0.191,-0.911 0.124,-0.61 0.062,-0.304 0,0"></path>
        </g>
        <g transform="translate(688.9375,676.8516)" id="g112">
          <path id="path114" style="fill:#ea5d80;fill-opacity:1;fill-rule:nonzero;stroke:none" d="M 0,0 C -0.265,-0.542 -0.512,-1.09 -0.741,-1.644 -0.51,-1.083 -0.255,-0.542 0,0"></path>
        </g>
        <g transform="translate(808.6826,738.0151)" id="g116">
          <path id="path118" style="fill:#ea5d80;fill-opacity:1;fill-rule:nonzero;stroke:none" d="m 0,0 c -10.479,28.211 -40.335,15.422 -38.689,70.124 1.715,57.064 -65.335,86.751 -89.516,103.677 -20.587,14.411 -37.53,-1.498 -42.847,-4.479 -63.292,30.354 -81.384,-30.225 -97.354,-66.957 -16.12,-37.077 -42.857,-39.74 -38.272,-68.494 8.866,-55.615 -3.64,-33.065 -21.374,-65.306 -17.732,-32.241 -8.059,-87.05 12.091,-97.528 20.15,-10.479 47.479,20.296 78.913,7.4 16.71,-6.855 31.572,-9.525 41.829,-8.208 4.003,0.515 7.685,2.56 10.743,5.448 l 1.066,1.072 c 0.014,0.015 0.028,0.029 0.043,0.044 0.46,0.49 0.904,0.997 1.33,1.522 2.684,3.315 4.658,7.28 5.614,11.206 0.489,2.006 0.875,3.937 1.184,5.812 1.501,9.125 0.957,16.75 -0.813,23.299 -0.929,3.444 -2.201,6.588 -3.682,9.505 -0.012,0.023 -0.024,0.048 -0.036,0.071 -11.855,23.256 -37.326,31.785 -14.482,58.09 26.599,30.629 12.09,73.348 1.612,105.589 -10.478,32.24 34.66,30.629 34.66,30.629 0,0 18.982,2.942 19.765,-14.781 0.035,-0.788 0.083,-1.576 0.143,-2.364 0.013,-0.189 0.033,-0.373 0.049,-0.561 0.049,-0.599 0.102,-1.197 0.166,-1.794 0.023,-0.22 0.051,-0.435 0.077,-0.653 0.064,-0.559 0.134,-1.117 0.211,-1.674 0.034,-0.241 0.07,-0.479 0.106,-0.716 0.078,-0.522 0.162,-1.043 0.252,-1.563 0.046,-0.265 0.093,-0.531 0.142,-0.794 0.087,-0.47 0.181,-0.939 0.279,-1.407 0.062,-0.304 0.124,-0.61 0.191,-0.911 0.078,-0.354 0.166,-0.706 0.25,-1.058 0.175,-0.727 0.365,-1.438 0.561,-2.142 0.33,-1.211 0.683,-2.415 1.089,-3.604 1.797,-5.254 4.316,-10.254 7.502,-14.803 2.805,-4.005 6.113,-7.649 9.795,-10.865 3.211,-2.805 6.702,-5.287 10.389,-7.427 2.977,-1.727 6.084,-3.238 9.291,-4.488 1.555,-0.606 3.188,-1.256 4.83,-1.702 0.86,-0.233 1.734,-0.417 2.62,-0.517 0.727,-0.083 1.711,0.106 2.354,-0.288 1.216,-0.746 1.802,-2.46 2.236,-3.729 1.527,-4.46 2.041,-9.316 2.492,-13.985 0.295,-3.051 0.584,-6.146 0.577,-9.216 -0.027,-11.443 -2.353,-22.842 -6.377,-33.535 -3.571,-9.488 -8.44,-18.449 -14.114,-26.837 -3.579,-5.292 -8.506,-10.251 -12.47,-15.59 -1.596,-2.149 -3.04,-4.357 -4.171,-6.676 -0.255,-0.541 -0.51,-1.083 -0.741,-1.644 -1.198,-2.903 -2.071,-6.047 -2.589,-9.302 -0.487,-3.051 -0.657,-6.193 -0.484,-9.322 0.331,-5.965 1.914,-11.863 4.965,-16.932 0.84,-1.395 1.782,-2.732 2.849,-3.985 2.173,-2.552 4.839,-4.76 8.007,-6.516 1.654,-0.917 3.431,-1.722 5.373,-2.366 23.473,-7.78 28.485,21.666 63,15.663 27.807,-4.836 34.66,-3.224 43.526,14.509 C 13.027,-63.327 10.478,-28.21 0,0"></path>
        </g>
        <g transform="translate(625.2725,614.7642)" id="g120">
          <path id="path122" style="fill:#ea5d80;fill-opacity:1;fill-rule:nonzero;stroke:none" d="m 0,0 0.042,0.043 c 10e-4,0 10e-4,0 10e-4,0.001 C 0.028,0.029 0.014,0.015 0,0"></path>
        </g>
        <g transform="translate(410.5957,430.0566)" id="g124">
          <path id="path126" style="fill:#cccbcb;fill-opacity:1;fill-rule:nonzero;stroke:none" d="m 0,0 c -0.611,-1.284 -1.527,-2.339 -2.741,-3.096 -1.589,-0.991 -3.685,-0.813 -5.31,0.515 -1.732,1.416 -2.649,3.351 -3.019,5.533 -0.568,3.337 -0.106,6.522 1.678,9.43 0.803,1.307 1.955,2.219 3.323,2.778 1.052,0.431 2.123,0.196 3.117,-0.333 1.368,-0.729 2.534,-2.128 3.497,-4.399 C 1.715,7.224 1.7,3.569 0,0 m -0.379,-15.674 c -0.642,-1.897 -1.616,-3.563 -3.334,-4.658 -1.109,-0.706 -2.342,-0.936 -3.604,-1.041 -0.849,-0.07 -1.703,-0.117 -2.554,-0.111 -1.998,0.015 -3.698,-0.686 -5.242,-2.001 -1.599,-1.36 -3.265,-2.642 -4.967,-3.862 -1.794,-1.286 -3.729,-2.289 -5.978,-2.42 -0.091,-0.005 -0.184,-0.01 -0.277,-0.012 -2.827,-0.048 -4.297,1.191 -4.858,4.051 -0.453,2.308 -0.276,4.619 -0.01,6.917 0.523,4.529 1.702,8.863 3.911,12.848 1.063,1.918 2.386,3.606 4.313,4.685 0.211,0.118 0.43,0.221 0.645,0.332 1.609,0.667 3.249,0.499 4.874,0.161 3.546,-0.737 6.721,-2.376 9.711,-4.423 2.282,-1.562 4.39,-3.338 6.055,-5.612 0.708,-0.967 1.363,-1.986 1.475,-3.231 0.049,-0.533 0.01,-1.121 -0.16,-1.623 M -33.49,1.772 c -1.411,0.195 -2.675,0.791 -3.814,1.644 -3.419,2.559 -5.571,5.978 -6.154,10.307 -0.261,1.935 -0.003,3.9 1.306,5.48 1.122,1.355 2.548,1.99 4.315,1.606 2.215,-0.483 3.954,-1.779 5.498,-3.403 1.324,-1.395 2.335,-3.017 3.16,-4.877 0.821,-2.028 1.376,-4.21 0.955,-6.51 -0.151,-0.826 -0.463,-1.677 -0.907,-2.378 -1.015,-1.606 -2.559,-2.117 -4.359,-1.869 m -4.364,-16.5 c -2.248,-0.035 -4.219,0.807 -5.99,2.154 -2.564,1.95 -4.428,4.418 -4.909,7.769 -0.397,2.781 1.088,5.329 3.672,6.157 0.811,0.259 1.779,0.224 2.634,0.074 3.063,-0.538 5.395,-2.345 7.266,-4.821 0.578,-0.764 1.024,-1.635 1.288,-2.065 0.705,-1.72 1.029,-3.047 0.939,-4.455 -0.183,-2.865 -2.115,-4.769 -4.9,-4.813 m 12.094,39.124 c 0.658,1.554 1.82,2.655 3.323,3.324 0.961,0.429 1.935,0.229 2.857,-0.207 1.415,-0.669 2.43,-1.802 3.251,-3.128 0.357,-0.579 0.647,-1.203 0.891,-1.663 1.436,-3.64 1.759,-7.201 0.734,-10.834 -0.414,-1.467 -1.106,-2.801 -2.242,-3.838 -1.428,-1.303 -3.028,-1.545 -4.754,-0.753 -1.648,0.757 -2.788,2.101 -3.602,3.704 -2.217,4.376 -2.379,8.865 -0.458,13.395 M 307.683,-81.722 H 148.575 l -41.695,194.527 -0.453,2.115 c -1.287,6.002 -6.591,10.29 -12.73,10.29 H -175.66 c -8.289,0 -14.467,-7.643 -12.73,-15.747 l 43.193,-201.513 c 1.286,-6.002 6.591,-10.29 12.728,-10.29 H -0.7 69.488 136.89 307.683 c 5.693,0 10.308,4.615 10.308,10.309 0,5.694 -4.615,10.309 -10.308,10.309"></path>
        </g>
        <g transform="translate(408.9014,419.2363)" id="g128">
          <path id="path130" style="fill:#ffffff;fill-opacity:1;fill-rule:nonzero;stroke:none" d="m 0,0 c -1.665,2.274 -3.772,4.05 -6.055,5.613 -2.99,2.046 -6.165,3.685 -9.711,4.423 -1.625,0.338 -3.264,0.505 -4.874,-0.162 -0.214,-0.11 -0.433,-0.213 -0.644,-0.332 -1.928,-1.079 -3.25,-2.767 -4.314,-4.685 -2.209,-3.984 -3.386,-8.318 -3.911,-12.848 -0.265,-2.298 -0.443,-4.609 0.01,-6.917 0.562,-2.86 2.031,-4.099 4.858,-4.051 0.093,0.002 0.186,0.007 0.278,0.012 2.249,0.132 4.183,1.135 5.977,2.421 1.702,1.219 3.368,2.501 4.967,3.861 1.544,1.315 3.244,2.017 5.242,2.001 0.852,-0.006 1.705,0.041 2.554,0.112 1.263,0.105 2.495,0.334 3.604,1.041 1.718,1.094 2.692,2.76 3.334,4.657 0.17,0.502 0.209,1.089 0.161,1.624 C 1.363,-1.985 0.708,-0.967 0,0"></path>
        </g>
        <g transform="translate(381.4648,433.6973)" id="g132">
          <path id="path134" style="fill:#ffffff;fill-opacity:1;fill-rule:nonzero;stroke:none" d="m 0,0 c 0.443,0.702 0.756,1.552 0.907,2.378 0.422,2.301 -0.135,4.482 -0.955,6.511 -0.825,1.859 -1.836,3.481 -3.16,4.876 -1.544,1.625 -3.283,2.921 -5.498,3.403 -1.767,0.385 -3.193,-0.251 -4.315,-1.605 -1.309,-1.581 -1.567,-3.546 -1.306,-5.48 0.584,-4.33 2.735,-7.749 6.154,-10.308 1.139,-0.853 2.402,-1.449 3.814,-1.644 C -2.56,-2.116 -1.015,-1.606 0,0"></path>
        </g>
        <g transform="translate(388.8955,437.354)" id="g136">
          <path id="path138" style="fill:#ffffff;fill-opacity:1;fill-rule:nonzero;stroke:none" d="M 0,0 C 1.727,-0.792 3.326,-0.55 4.755,0.753 5.891,1.79 6.582,3.124 6.996,4.591 8.021,8.224 7.698,11.784 6.263,15.425 6.019,15.885 5.729,16.508 5.371,17.087 4.55,18.414 3.535,19.546 2.12,20.216 1.198,20.652 0.225,20.851 -0.737,20.423 -2.24,19.754 -3.401,18.652 -4.06,17.099 -5.98,12.568 -5.818,8.08 -3.602,3.704 -2.788,2.101 -1.647,0.756 0,0"></path>
        </g>
        <g transform="translate(375.415,426.6616)" id="g140">
          <path id="path142" style="fill:#ffffff;fill-opacity:1;fill-rule:nonzero;stroke:none" d="m 0,0 c -1.871,2.475 -4.202,4.283 -7.267,4.821 -0.854,0.15 -1.822,0.185 -2.633,-0.074 -2.584,-0.828 -4.07,-3.376 -3.672,-6.157 0.48,-3.351 2.344,-5.819 4.909,-7.769 1.77,-1.347 3.742,-2.189 5.989,-2.154 2.785,0.044 4.718,1.948 4.901,4.813 0.089,1.408 -0.234,2.735 -0.939,4.455 C 1.023,-1.635 0.578,-0.764 0,0"></path>
        </g>
        <g transform="translate(407.6436,444.8833)" id="g144">
          <path id="path146" style="fill:#ffffff;fill-opacity:1;fill-rule:nonzero;stroke:none" d="m 0,0 c -0.994,0.529 -2.064,0.764 -3.117,0.333 -1.368,-0.559 -2.52,-1.471 -3.322,-2.778 -1.785,-2.908 -2.247,-6.093 -1.679,-9.43 0.37,-2.182 1.287,-4.117 3.019,-5.533 1.625,-1.327 3.721,-1.506 5.31,-0.515 1.214,0.757 2.13,1.812 2.741,3.096 1.7,3.57 1.715,7.224 0.545,10.428 C 2.534,-2.127 1.368,-0.729 0,0"></path>
        </g>
      </g>
    </g>
  </g>
</svg>
