<svg width="40.000000" height="40.000000" viewBox="0 0 40 40" fill="none" xmlns="http://www.w3.org/2000/svg" xmlns:xlink="http://www.w3.org/1999/xlink">
	<desc>
			Created with Pixso.
	</desc>
	<defs/>
	<path d="M0 20.01C0 8.97 8.97 0 20.01 0C31.02 0 40 8.97 40 20.01C40 31.02 31.02 40 20.01 40C8.97 40 0 31.02 0 20.01ZM1 20.01C1 30.47 9.52 39 20.01 39C30.47 39 39 30.47 39 20.01C39 9.52 30.48 1 20.01 1C9.52 1 1 9.52 1 20.01ZM25.68 7.43C22.52 6.02 16.62 5.88 11.79 8.03C12.18 7.76 12.58 7.51 13 7.28C13.25 7.15 13.51 7.02 13.78 6.9C15.3 6.19 17.75 5.51 20.81 5.51C20.95 5.51 21.1 5.51 21.24 5.51C23.86 5.56 26.96 6.46 28.85 8.33C29.17 8.73 29.36 9.12 29.43 9.42C30.93 10.19 31.81 10.9 32.3 11.74C32.51 12.17 32.57 12.63 32.48 13.17C32.97 13.44 33.4 13.82 33.73 14.28C33.94 14.63 34.1 15.02 34.15 15.37C34.22 15.83 34.26 16.36 33.78 16.99C34.28 17.24 34.7 17.96 34.75 18.26C35 19.39 34.26 20.5 33.31 21.36C32.61 21.98 31.35 22.67 30.02 23.23C29.27 23.54 28.48 23.81 27.76 24C24.99 24.7 22.42 25.11 20.18 25.48C19.25 25.63 18.38 25.77 17.57 25.92C18.31 26.09 19.2 26.31 20.38 26.45C21.19 26.55 22.14 26.61 23.26 26.61C29.15 26.61 34.35 23.83 34.35 23.83C34.35 23.83 34.24 24.18 34.12 24.51C30.38 26.77 24.44 27.72 21.89 27.6C19.33 27.49 17.15 27.09 15.02 26.45C14.37 26.63 13.73 26.84 13.11 27.09C16.35 28.58 18.79 28.9 21.55 29.11C24.37 29.32 29.04 28.64 32.97 27.21C32.88 27.3 32.81 27.41 32.75 27.52C32.67 27.64 32.6 27.75 32.51 27.84C30.49 28.9 26.24 29.96 24.09 30.06C21.96 30.15 19.37 30.06 17.11 29.64C15.16 29.25 13.57 28.64 11.9 27.91C11.6 28.13 11.47 28.41 11.39 28.74C17.89 32.14 23.95 32.21 30.87 30.06L30.24 30.66C22.63 33.76 16.69 32.55 12.09 30.33C11.93 30.26 11.74 30.19 11.6 30.1C12.04 30.84 15.56 33.41 19.49 33.74C20.91 33.86 22.5 33.79 23.97 33.58C25.3 33.39 26.53 33.09 27.46 32.72L26.31 33.32C25.36 33.78 22.84 34.85 19.32 34.62C14.63 34.29 11.99 32.21 10.81 31.12C10.26 30.61 10.01 30.03 9.84 29.32C8.78 28.76 8.11 28.18 7.56 27.3C7.23 26.82 7.3 26.24 7.37 25.75L7.51 25.34C7 24.97 6.47 24.57 6.26 24.18C5.8 23.35 6.08 22.63 6.4 22.08C6.3 21.96 6.2 21.84 6.11 21.72C5.95 21.52 5.83 21.31 5.76 21.11C5.62 20.74 5.59 20.36 5.64 19.95C5.73 19.25 6.1 18.61 6.59 18.05C7.6 16.87 9.22 15.95 11.97 15.04C14.07 14.34 15.19 14.1 16.54 13.81C16.93 13.73 17.34 13.64 17.8 13.54C20.18 12.98 23.03 12.8 25.41 11.97C18.77 10.81 11.88 11.87 6.26 15.73L6.63 14.65C11.67 11.36 17.25 9.42 26.68 11.07C27.19 10.76 27.49 10.46 27.63 9.86C25.27 9.01 22.7 8.71 19.4 8.75C16.44 8.84 11.09 9.95 8.23 11.65L9.1 10.56C11.09 9.37 16.29 7.83 20.21 7.76C22.96 7.69 24.37 7.85 27.65 8.73C27.35 8.18 26.68 7.9 25.68 7.43ZM30.72 12.25C30.63 11.6 29.89 10.97 29.24 10.56C29.18 10.77 29.02 11 28.85 11.22C28.75 11.33 28.66 11.44 28.58 11.53C29.29 11.71 30.03 11.99 30.72 12.25ZM27.56 12.45C27.09 12.82 26.56 13.15 25.78 13.45C27.07 13.68 28.04 14.05 29.15 14.35C29.16 14.35 29.18 14.36 29.19 14.36C29.43 14.36 30.22 13.62 30.36 13.42C29.93 13.24 29.45 13.05 28.93 12.87C28.5 12.72 28.03 12.58 27.56 12.45ZM32.51 15.85C32.8 15.27 32.62 14.9 32 14.37C31.74 14.67 31.46 14.93 31.16 15.16C31.38 15.26 31.59 15.35 31.79 15.45C32.04 15.56 32.28 15.69 32.51 15.85ZM22.1 14.63C19.05 15 15.67 15.64 12.78 16.5L12.63 16.55C11.2 16.98 5.77 18.63 7.42 20.9L7.44 20.87C7.6 20.7 8.74 19.4 12.34 18.35C14.88 17.61 17.48 17.13 20.11 16.65C22.48 16.22 24.89 15.78 27.31 15.14C25.87 14.75 24.89 14.52 23.66 14.52C23.19 14.52 22.68 14.56 22.1 14.63ZM25.41 17.43C23.77 17.84 19.79 18.42 15.51 19.34C14.17 19.65 10.49 20.5 8.69 22.03C8.98 22.27 9.21 22.4 9.45 22.53C9.64 22.63 9.84 22.72 10.07 22.86C10.81 22.37 11.83 21.91 13.34 21.52C15.71 20.89 17.56 20.58 19.65 20.24L20.28 20.14C22.61 19.78 27.03 18.86 29.45 17.98C30.01 17.79 30.53 17.56 30.98 17.28C31.18 17.16 31.37 17.03 31.53 16.89C31.37 16.71 29.8 15.95 29.75 16.02C28.78 16.48 27.4 16.94 25.41 17.43ZM27.05 20.57C22.1 21.91 18.52 22.09 14.45 23.09C13.98 23.21 13.5 23.35 13.04 23.51C12.7 23.62 12.36 23.74 12.04 23.88C12.8 24.27 13.64 24.62 14.47 24.95C16.13 24.46 16.92 24.25 19.32 23.86L20.66 23.62C21.93 23.39 23.7 23.06 25.1 22.77C28.78 21.98 34.17 20.27 32.74 18.05C32.67 18.11 32.59 18.17 32.52 18.22C32.43 18.29 32.34 18.37 32.25 18.44C31.16 19.27 29.43 19.95 27.05 20.57ZM8.27 24.27C8.43 24.11 8.64 23.97 8.81 23.83C8.43 23.64 8.18 23.48 7.89 23.29L7.72 23.18C7.53 23.61 7.91 24.06 8.27 24.27ZM12.57 25.61C11.9 25.31 11.19 25.02 10.49 24.69C10.17 24.9 9.87 25.11 9.64 25.31C10.19 25.64 10.73 25.94 11.28 26.24C11.69 25.99 12.12 25.78 12.57 25.61ZM9.87 27.77C9.94 27.53 10.05 27.35 10.22 27.12C10.03 27.02 9.85 26.93 9.67 26.82C9.46 26.71 9.25 26.58 9.04 26.45C9.01 26.89 9.29 27.28 9.87 27.77Z" fill="#476BF0" fill-opacity="1.000000" fill-rule="evenodd"/>
</svg>
