<svg width="200.000000" height="50.000000" viewBox="0 0 200 50" fill="none" xmlns="http://www.w3.org/2000/svg" xmlns:xlink="http://www.w3.org/1999/xlink">
	<desc>
			Created with Pixso.
	</desc>
	<defs/>
	<path d="M18 40.63L39.79 40.63L39.79 45.16L18 45.16L18 40.63ZM175.58 26.12L182.45 18.54L177.33 18.54L171.7 24.84L171.7 18.54L167.62 18.54L167.62 34.48L171.72 34.48L171.72 27.76L177.74 34.48L183 34.48L175.58 26.12ZM42.18 27.17C42.08 30.17 41.7 30.75 40.04 30.75L40.04 34.49L40.65 34.49C44.83 34.49 45.82 32.33 45.97 27.54L46.14 22.25L50 22.25L50 34.48L54.08 34.48L54.08 18.54L42.47 18.54L42.18 27.17ZM24.48 29.91L33.08 29.91L34.5 34.48L39.28 34.48L32.85 15.32C32.23 13.46 31.51 12 29.05 12C26.59 12 25.84 13.46 25.17 15.32L18.43 34.48L22.91 34.48L24.48 29.91ZM28.84 17L28.95 17L31.83 26.08L25.77 26.08L28.84 17ZM124.15 20.8L119.6 20.8L119.6 16.3L130.16 16.3L130.16 12.3L115.32 12.3L115.32 34.48L124.15 34.48C129.03 34.48 131.85 32.04 131.85 27.58C131.85 23.34 129 20.8 124.15 20.8ZM123.94 30.46L119.6 30.46L119.6 24.71L123.94 24.71C126.2 24.71 127.47 25.71 127.47 27.58C127.47 29.46 126.2 30.46 123.94 30.46ZM83.59 18.17L83.59 12.28L79.51 12.28L79.51 18.17C77.38 18.25 75.36 19.16 73.89 20.72C72.43 22.28 71.65 24.36 71.72 26.5C71.64 28.64 72.42 30.72 73.89 32.29C75.35 33.85 77.37 34.77 79.51 34.84L79.51 40.84L83.6 40.84L83.6 34.84C84.66 34.81 85.7 34.57 86.67 34.13C87.63 33.69 88.5 33.06 89.23 32.29C89.95 31.51 90.52 30.6 90.89 29.61C91.26 28.61 91.43 27.56 91.39 26.5C91.44 25.43 91.27 24.37 90.9 23.38C90.53 22.38 89.96 21.47 89.23 20.7C88.51 19.92 87.63 19.3 86.66 18.87C85.69 18.44 84.65 18.2 83.59 18.17ZM79.53 31C78.45 30.88 77.46 30.34 76.77 29.5C76.08 28.65 75.75 27.58 75.86 26.5C75.77 25.42 76.1 24.34 76.78 23.51C77.47 22.67 78.45 22.13 79.53 22L79.53 31ZM83.61 31L83.61 22C84.68 22.13 85.66 22.67 86.35 23.51C87.03 24.34 87.36 25.42 87.28 26.5C87.37 27.58 87.04 28.65 86.36 29.49C85.67 30.33 84.68 30.87 83.61 31ZM106.69 29.58L106.69 24.21C106.69 20.29 104.2 17.84 100.02 17.84C95.84 17.84 93.39 20.45 93.2 23.16L97.33 23.16C97.47 22.58 98.09 21.54 100.01 21.54C100.36 21.5 100.73 21.54 101.07 21.66C101.41 21.77 101.72 21.97 101.97 22.23C102.22 22.49 102.41 22.8 102.52 23.15C102.63 23.49 102.66 23.86 102.61 24.21L98.61 24.21C94.99 24.21 92.84 26.12 92.84 29.29C92.81 30.04 92.94 30.79 93.22 31.49C93.5 32.19 93.92 32.83 94.46 33.35C95.01 33.88 95.65 34.28 96.36 34.54C97.07 34.81 97.82 34.91 98.58 34.87C99.43 34.91 100.27 34.74 101.04 34.38C101.82 34.02 102.49 33.48 103 32.79C103.33 33.36 103.81 33.81 104.39 34.11C104.97 34.41 105.63 34.53 106.28 34.48L107.69 34.48L107.69 30.79C107 30.79 106.69 30.46 106.69 29.58ZM102.61 28.58C102.62 28.98 102.56 29.37 102.41 29.74C102.26 30.1 102.04 30.44 101.76 30.71C101.47 30.98 101.14 31.19 100.76 31.33C100.39 31.46 100 31.51 99.61 31.49C98.13 31.49 96.98 30.96 96.98 29.37C96.98 27.78 98.27 27.54 99.36 27.54L102.61 27.54L102.61 28.58ZM64.24 23.38L61.31 23.38L61.31 18.54L57.23 18.54L57.23 34.48L64.31 34.48C68.74 34.48 70.31 31.59 70.31 28.87C70.33 25.37 68.12 23.38 64.24 23.38ZM63.93 31L61.31 31L61.31 27L63.93 27C65.35 27 66.19 27.63 66.19 29C66.19 30.36 65.38 31 63.93 31ZM147.42 29.58L147.42 24.21C147.42 20.29 144.92 17.84 140.75 17.84C136.57 17.84 134.13 20.45 133.92 23.16L138.06 23.16C138.2 22.58 138.82 21.54 140.74 21.54C141.09 21.5 141.46 21.54 141.8 21.66C142.14 21.77 142.45 21.97 142.7 22.23C142.95 22.49 143.14 22.8 143.25 23.15C143.36 23.49 143.39 23.86 143.34 24.21L139.34 24.21C135.72 24.21 133.57 26.12 133.57 29.29C133.54 30.04 133.67 30.79 133.95 31.49C134.23 32.19 134.65 32.83 135.19 33.35C135.74 33.88 136.38 34.28 137.09 34.54C137.8 34.81 138.55 34.91 139.31 34.87C140.16 34.92 141.02 34.76 141.8 34.4C142.58 34.03 143.26 33.48 143.78 32.79C144.1 33.35 144.58 33.8 145.15 34.09C145.72 34.39 146.36 34.52 147 34.48L148.41 34.48L148.41 30.79C147.7 30.79 147.42 30.46 147.42 29.58ZM143.36 28.58C143.37 28.98 143.3 29.37 143.16 29.74C143.01 30.1 142.79 30.43 142.5 30.71C142.22 30.98 141.88 31.19 141.51 31.32C141.14 31.46 140.75 31.51 140.36 31.49C138.89 31.49 137.73 30.96 137.73 29.37C137.73 27.78 139.02 27.54 140.11 27.54L143.36 27.54L143.36 28.58ZM160.45 24.48L154.82 24.48L154.82 18.54L150.74 18.54L150.74 34.49L154.82 34.49L154.82 28.21L160.45 28.21L160.45 34.48L164.53 34.48L164.53 18.54L160.45 18.54L160.45 24.48Z" fill="#EF3124" fill-opacity="1.000000" fill-rule="nonzero"/>
</svg>
