<svg width="216.000000" height="48.000000" viewBox="0 0 216 48" fill="none" xmlns="http://www.w3.org/2000/svg" xmlns:xlink="http://www.w3.org/1999/xlink">
	<desc>
			Created with Pixso.
	</desc>
	<defs>
		<clipPath id="clip1_152">
			<rect id="Group_1919.svg" rx="-0.500000" width="215.000000" height="47.000000" transform="translate(0.500000 0.500000)" fill="white" fill-opacity="0"/>
		</clipPath>
		<clipPath id="clip1_151">
			<rect id="Group_1919.svg fill" rx="-0.500000" width="215.000000" height="47.000000" transform="translate(0.500000 0.500000)" fill="white" fill-opacity="0"/>
		</clipPath>
	</defs>
	<g clip-path="url(#clip1_151)">
		<g clip-path="url(#clip1_152)">
			<path id="Vector" d="M108 0.46C98.05 0.46 90 8.37 90 18.14L90 47.53L126 47.53L126 18.14C126 8.37 117.94 0.46 108 0.46ZM99.33 14.02L101.34 14.02L107.49 24.5L108.5 24.5L114.64 14.02L116.66 14.02L116.66 25.9L115.06 25.9L115.06 16.31L109.44 25.9L106.56 25.9L100.93 16.31L100.93 25.9L99.34 25.9L99.34 14.02L99.33 14.02ZM116.66 39.41L114.65 39.41L108.5 28.94L107.5 28.94L101.35 39.41L99.34 39.41L99.34 27.54L100.93 27.54L100.93 37.12L106.55 27.54L109.44 27.54L115.06 37.12L115.06 27.54L116.65 27.54L116.65 39.41L116.66 39.41Z" fill="#2D2E2C" fill-opacity="1.000000" fill-rule="nonzero"/>
			<path id="Vector" d="M0 25.57L55.38 25.57" stroke="#000000" stroke-opacity="1.000000" stroke-width="1.000000"/>
			<path id="Vector" d="M160.61 25.57L216 25.57" stroke="#000000" stroke-opacity="1.000000" stroke-width="1.000000"/>
		</g>
	</g>
</svg>
