<svg width="100.001007" height="35.644531" viewBox="0 0 100.001 35.6445" fill="none" xmlns="http://www.w3.org/2000/svg" xmlns:xlink="http://www.w3.org/1999/xlink">
	<desc>
			Created with Pixso.
	</desc>
	<defs/>
	<path id="path" d="M6.9 0L5.17 4.74L29.11 4.74L30.84 0L6.9 0ZM4.31 7.1L2.58 11.84L26.52 11.84L28.25 7.1L4.31 7.1ZM1.72 14.21L0 18.95L23.93 18.95L25.66 14.21C25.66 14.21 1.72 14.21 1.72 14.21Z" fill="#009FDF" fill-opacity="1.000000" fill-rule="nonzero"/>
	<path id="path" d="M50.32 20.44L50.32 20.53C51.39 20.93 52.42 21.62 52.96 22.06C54.62 23.45 55.35 25.27 55.35 27.64C55.35 31.54 53.3 34.35 49.93 35.24C48.9 35.54 47.82 35.64 45.82 35.64L35.6 35.64L35.6 7.11L44.65 7.11C46.51 7.11 47.78 7.21 48.9 7.5C52.18 8.39 54.33 10.66 54.33 14.26C54.33 16.19 53.64 17.82 52.52 18.9C52.03 19.4 51.35 19.99 50.32 20.43L50.32 20.44ZM41.27 23.45L41.27 30.95L45.18 30.95C46.36 30.95 47.43 30.85 48.22 30.11C49 29.37 49.34 28.43 49.34 27.2C49.34 26.26 49.09 25.37 48.61 24.73C47.78 23.69 46.75 23.45 44.99 23.45L41.27 23.45L41.27 23.45ZM41.22 18.51L44.4 18.51C45.38 18.51 45.87 18.51 46.36 18.36C47.68 17.97 48.51 16.78 48.51 15.15C48.51 13.23 47.63 12.39 46.36 12C45.82 11.85 45.28 11.8 44.2 11.8L41.22 11.8L41.22 18.51L41.22 18.51ZM63.86 35.64L63.86 11.9L55.7 11.9L55.7 7.11L78.38 7.11L76.77 11.9L69.53 11.9L69.53 35.64L63.86 35.64ZM80.14 35.64L80.14 7.11L98.53 7.11L96.91 11.9L85.77 11.9L85.77 18.22L90.31 18.22C93.98 18.22 95.89 19.1 97.21 20.24C98.24 21.13 100 23.1 100 27C100 30.85 98.19 32.97 96.67 34.06C94.91 35.29 93.05 35.64 89.29 35.64L80.14 35.64L80.14 35.64L80.14 35.64ZM85.77 30.85L90.02 30.85C91.63 30.85 92.61 30.45 93.29 29.57C93.64 29.12 94.13 28.33 94.13 26.85C94.13 25.37 93.64 24.33 92.66 23.59C92.07 23.15 91.29 22.9 89.97 22.9L85.76 22.9L85.76 30.85L85.77 30.85Z" fill="#0A2973" fill-opacity="1.000000" fill-rule="nonzero"/>
</svg>
