<svg width="40.000000" height="40.000000" viewBox="0 0 40 40" fill="none" xmlns="http://www.w3.org/2000/svg" xmlns:xlink="http://www.w3.org/1999/xlink">
	<desc>
			Created with Pixso.
	</desc>
	<defs/>
	<path d="M40 32.44C40 37.29 37.3 40 32.43 40L7.56 40C2.69 40 0 37.29 0 32.44L0 7.55C0 2.7 2.69 0 7.56 0L32.45 0C37.3 0 40 2.7 40 7.55L40 32.44Z" fill="#FFE600" fill-opacity="1.000000" fill-rule="nonzero"/>
	<path d="M25.71 18.04L25.71 14.22L27.09 12.84L27.09 16.15L28.29 17.35L33.12 12.52L34.31 13.71C34.3 12.81 34.12 10.2 31.91 8.03C29.53 5.73 26.95 6.77 26.07 7.65L21.25 12.47L22.48 13.7L19.99 16.21L17.5 13.72L18.73 12.49L13.91 7.67C13.03 6.79 10.45 5.75 8.07 8.05C5.86 10.22 5.68 12.83 5.67 13.73L6.86 12.54L11.69 17.37L12.89 16.17L12.89 12.86L14.27 14.24L14.27 18.06L16.21 19.99L6.65 29.55L10.43 33.32L19.99 23.77L29.55 33.33L33.33 29.56L23.77 19.99L25.71 18.04Z" fill="#2B2D34" fill-opacity="1.000000" fill-rule="nonzero"/>
</svg>
