<svg width="170.570312" height="36.000000" viewBox="0 0 170.57 36" fill="none" xmlns="http://www.w3.org/2000/svg" xmlns:xlink="http://www.w3.org/1999/xlink">
	<desc>
			Created with Pixso.
	</desc>
	<defs/>
	<path id="path" d="M18.01 0C8.07 0 0 8.07 0 18C0 27.92 8.07 36 18.01 36C27.92 36 36 27.92 36 18C36 8.07 27.92 0 18.01 0ZM18.01 35.09C8.57 35.09 0.89 27.42 0.89 18C0.89 8.57 8.57 0.9 18.01 0.9C27.43 0.9 35.1 8.57 35.1 18C35.1 27.42 27.42 35.09 18.01 35.09ZM70.89 14.82C70.89 15.97 69.82 16.34 69.24 16.34L67.7 16.34L67.7 19.67L69.16 19.67C70.39 19.67 70.95 20.26 70.95 21.13C70.95 21.75 70.49 22.61 69.33 22.61C68.64 22.61 67.95 22.57 66.93 22.13L66.87 25.36C67.2 25.54 67.52 25.69 67.84 25.8C68.57 26.06 69.31 26.16 70.28 26.17C72.91 26.17 74.94 24.55 74.94 21.61C74.94 19.23 73.53 18.22 72.47 17.88L72.47 17.74C73.57 17.28 74.7 16.09 74.7 14.13C74.7 12.12 73.38 10.05 70.43 10.05C69.81 10.05 69.2 10.09 68.6 10.18C68.16 10.24 67.72 10.33 67.29 10.45L67.33 13.82C68.1 13.45 68.89 13.39 69.3 13.39C69.66 13.39 70.89 13.47 70.89 14.82ZM104.64 26.04C108.91 26.04 110.34 22.04 110.34 18.07C110.34 14.09 108.91 10.1 104.64 10.1C100.37 10.1 98.94 14.09 98.94 18.07C98.94 22.04 100.37 26.04 104.64 26.04ZM104.64 22.27C103.37 22.27 102.73 20.8 102.73 18.07C102.73 15.34 103.37 13.86 104.64 13.86C105.91 13.86 106.55 15.34 106.55 18.07C106.55 20.8 105.91 22.27 104.64 22.27ZM115.13 10.33L112.07 10.33L112.07 25.86L115.67 25.86L115.67 16.38L117.83 19.09L120 16.38L120 25.86L123.6 25.86L123.6 10.32L120.56 10.32L117.83 13.99L115.13 10.33ZM126.03 25.86L130.32 25.86C131.25 25.86 135.15 25.46 135.17 20.75C135.17 16.8 132.15 16.11 130.19 16.11L129.55 16.11L129.55 14.05L134.31 14.05L134.31 10.33L126.03 10.33L126.03 25.86ZM129.55 22.73L129.55 19.21L130.07 19.21C130.29 19.21 130.69 19.22 131.03 19.43C131.36 19.64 131.63 20.05 131.63 20.84C131.63 22.46 130.5 22.73 130.07 22.73L129.55 22.73ZM148.11 10.33L151.63 10.33L151.63 15.93L154.15 15.93L154.15 10.33L157.66 10.33L157.66 25.86L154.15 25.86L154.15 19.63L151.63 19.63L151.63 25.86L148.11 25.86L148.11 10.33ZM160.03 10.33L163.57 10.33L163.55 15.91L164.32 15.91L166.34 10.33L170.17 10.33L167.42 17.7L170.57 25.86L166.42 25.86L164.39 19.61L163.55 19.61L163.57 25.86L160.03 25.86L160.03 10.33ZM139.52 25.88L135.86 25.88L138.96 10.35L143.49 10.35L146.57 25.88L142.91 25.88L142.47 23.19L139.96 23.19L139.52 25.88ZM141.89 19.78L141.22 15.05L140.54 19.78L141.89 19.78ZM92.11 25.86L88.51 25.86L88.51 10.32L93.32 10.32C96.71 10.32 97.98 13.49 97.98 15.49C97.98 17.53 96.88 20.74 93.32 20.74L92.11 20.74L92.11 25.86ZM92.97 13.74L92.11 13.74L92.11 17.32L92.97 17.32C93.42 17.32 94.3 17.2 94.3 15.53C94.3 14.24 93.78 13.74 92.97 13.74ZM76.63 10.33L86.45 10.33L86.45 25.86L82.85 25.86L82.85 14.07L80.23 14.07L80.23 25.86L76.63 25.86L76.63 10.33ZM55.09 25.86L58.73 25.86L59.19 23.17L61.71 23.17L62.15 25.86L65.79 25.86L62.71 10.32L58.17 10.32L55.09 25.86ZM60.44 15.01L61.13 19.76L59.75 19.76L60.44 15.01ZM55.51 10.33L48.12 10.33L48.12 25.86L51.78 25.86L51.78 14.2L55.51 14.2L55.51 10.33ZM23.11 6.69C20.27 5.42 14.96 5.29 10.61 7.23C11.17 6.83 11.77 6.49 12.4 6.21C13.77 5.57 15.98 4.96 18.73 4.96C18.86 4.96 18.99 4.96 19.12 4.96C21.47 5 24.26 5.81 25.97 7.5C26.14 7.71 26.27 7.92 26.36 8.11C26.42 8.24 26.46 8.37 26.49 8.48C27.84 9.17 28.63 9.81 29.07 10.56C29.25 10.96 29.32 11.37 29.23 11.85C29.68 12.1 30.06 12.44 30.36 12.85C30.46 13.02 30.54 13.19 30.61 13.36C30.67 13.52 30.71 13.68 30.73 13.83C30.79 14.25 30.83 14.72 30.4 15.29C30.86 15.52 31.23 16.16 31.27 16.43C31.5 17.45 30.83 18.45 29.98 19.22C28.98 20.1 26.78 21.14 24.99 21.6C21.45 22.49 18.31 22.87 15.81 23.33C16.94 23.59 18.45 23.95 20.93 23.95C26.24 23.95 30.92 21.45 30.92 21.45C30.92 21.45 30.82 21.76 30.71 22.06C27.34 24.09 21.99 24.95 19.7 24.84C17.39 24.74 15.44 24.38 13.52 23.8C12.94 23.97 12.36 24.16 11.8 24.38C14.71 25.72 16.91 26.01 19.39 26.2C21.93 26.38 26.13 25.78 29.67 24.49C29.5 24.66 29.42 24.91 29.25 25.05C28.05 25.69 25.95 26.33 24.11 26.71C23.19 26.9 22.33 27.02 21.68 27.05C19.77 27.13 17.43 27.05 15.39 26.67C13.65 26.32 12.21 25.78 10.71 25.12C10.44 25.32 10.32 25.57 10.25 25.87C16.1 28.92 21.55 28.99 27.78 27.05L27.21 27.59C20.37 30.38 15.02 29.3 10.88 27.3L10.7 27.22C10.61 27.18 10.52 27.14 10.44 27.09C10.84 27.76 14 30.07 17.54 30.36C19.98 30.57 22.95 30.15 24.72 29.45L23.68 29.99C22.82 30.4 20.56 31.36 17.39 31.15C13.17 30.86 10.79 28.99 9.73 28.01C9.23 27.55 9.01 27.03 8.86 26.38C8.17 26.02 7.66 25.65 7.24 25.17C7.09 24.99 6.94 24.79 6.8 24.57C6.51 24.14 6.57 23.62 6.63 23.18L6.76 22.81C6.3 22.47 5.82 22.12 5.64 21.76C5.22 21.01 5.47 20.37 5.76 19.87C5.51 19.58 5.28 19.29 5.18 18.99C5.05 18.66 5.03 18.32 5.07 17.95C5.16 17.33 5.49 16.75 5.93 16.25C6.84 15.18 8.3 14.35 10.77 13.54C13.21 12.72 14.19 12.6 16.02 12.18C16.83 11.99 17.71 11.85 18.6 11.71C20.05 11.48 21.54 11.24 22.87 10.77C16.89 9.73 10.69 10.69 5.64 14.16L5.97 13.18C10.5 10.23 15.52 8.48 24.01 9.96C24.47 9.69 24.74 9.41 24.86 8.87C22.74 8.11 20.43 7.83 17.46 7.87C14.79 7.96 9.98 8.95 7.41 10.48L8.19 9.5C9.98 8.43 14.66 7.04 18.18 6.98C20.66 6.92 21.93 7.06 24.88 7.85C24.63 7.39 24.09 7.14 23.29 6.77L23.11 6.69ZM27.65 11.02C27.57 10.44 26.9 9.87 26.32 9.5C26.24 9.79 25.93 10.15 25.72 10.37C26.36 10.54 27.03 10.79 27.65 11.02ZM24.8 11.21C24.38 11.54 23.91 11.83 23.2 12.1C23.83 12.21 24.37 12.36 24.9 12.52C25.34 12.65 25.78 12.79 26.24 12.91C26.25 12.92 26.26 12.92 26.27 12.92C26.49 12.92 27.2 12.26 27.32 12.08C26.61 11.77 25.74 11.45 24.8 11.21ZM29.25 14.27C29.52 13.75 29.36 13.41 28.8 12.93C28.57 13.21 28.32 13.43 28.05 13.64C28.48 13.85 28.88 14 29.25 14.27ZM19.89 13.16C17.14 13.5 14.1 14.08 11.5 14.85L11.37 14.89C10.08 15.28 5.2 16.76 6.68 18.81C6.69 18.81 7.62 17.53 11.11 16.51C13.39 15.84 15.73 15.42 18.1 14.99C20.24 14.6 22.4 14.2 24.57 13.62C22.78 13.15 21.78 12.93 19.89 13.16ZM22.87 15.68C21.39 16.06 17.81 16.58 13.96 17.41C12.75 17.68 9.44 18.45 7.82 19.83C8.03 20 8.21 20.11 8.38 20.21C8.59 20.32 8.8 20.42 9.07 20.58C9.73 20.14 10.65 19.72 12 19.37C14.35 18.74 16.12 18.47 18.25 18.12C20.35 17.8 24.32 16.97 26.51 16.18C27.02 16.01 27.5 15.79 27.91 15.54C28.08 15.43 28.24 15.32 28.38 15.2C28.23 15.04 26.82 14.35 26.78 14.41C25.91 14.83 24.66 15.24 22.87 15.68ZM17.75 19.87C16.15 20.13 14.62 20.39 13 20.79C12.27 20.97 11.52 21.2 10.84 21.49C11.52 21.84 12.27 22.16 13.02 22.45C14.52 22.01 15.23 21.83 17.39 21.47C18.22 21.32 20.76 20.87 22.59 20.5C25.91 19.78 30.75 18.24 29.46 16.25C29.4 16.3 29.33 16.35 29.27 16.4C29.19 16.46 29.11 16.53 29.03 16.6C28.05 17.34 26.49 17.95 24.34 18.51C21.86 19.19 19.76 19.54 17.75 19.87ZM7.75 21.59C7.81 21.54 7.87 21.5 7.92 21.45C7.66 21.31 7.46 21.19 7.25 21.06L6.95 20.87C6.87 21.03 6.9 21.21 6.97 21.36C7.07 21.56 7.26 21.74 7.45 21.84C7.54 21.75 7.64 21.67 7.75 21.59ZM11.31 23.05C10.71 22.78 10.07 22.51 9.44 22.22C9.15 22.41 8.88 22.59 8.67 22.78C9.17 23.07 9.65 23.34 10.15 23.62C10.52 23.39 10.91 23.2 11.31 23.05ZM8.88 24.99C8.94 24.78 9.05 24.62 9.19 24.41C8.84 24.22 8.49 24.03 8.13 23.8C8.11 24.2 8.36 24.55 8.88 24.99Z" fill="#476BF0" fill-opacity="1.000000" fill-rule="evenodd"/>
</svg>
