<svg width="40.000000" height="40.000000" viewBox="0 0 40 40" fill="none" xmlns="http://www.w3.org/2000/svg" xmlns:xlink="http://www.w3.org/1999/xlink">
	<desc>
			Created with Pixso.
	</desc>
	<defs>
		<linearGradient x1="6.702534" y1="33.562542" x2="1.601545" y2="19.012463" id="paint_linear_458_594_0" gradientUnits="userSpaceOnUse">
			<stop offset="0.140000" stop-color="#F1E813"/>
			<stop offset="0.300000" stop-color="#E6E418"/>
			<stop offset="0.580000" stop-color="#C9DA26"/>
			<stop offset="0.890000" stop-color="#A2CC39"/>
		</linearGradient>
		<linearGradient x1="7.082275" y1="6.676310" x2="19.955408" y2="1.835683" id="paint_linear_458_595_0" gradientUnits="userSpaceOnUse">
			<stop offset="0.060000" stop-color="#0FA7DF"/>
			<stop offset="0.540000" stop-color="#0098F8"/>
			<stop offset="0.920000" stop-color="#0290EA"/>
		</linearGradient>
		<linearGradient x1="18.447945" y1="37.211052" x2="32.974915" y2="33.972843" id="paint_linear_458_596_0" gradientUnits="userSpaceOnUse">
			<stop offset="0.120000" stop-color="#A2CC39"/>
			<stop offset="0.280000" stop-color="#86C239"/>
			<stop offset="0.870000" stop-color="#219F38"/>
		</linearGradient>
		<linearGradient x1="18.781385" y1="1.547044" x2="31.213781" y2="5.332700" id="paint_linear_458_597_0" gradientUnits="userSpaceOnUse">
			<stop offset="0.060000" stop-color="#0290EA"/>
			<stop offset="0.790000" stop-color="#0C89CA"/>
		</linearGradient>
		<linearGradient x1="6.245490" y1="32.854645" x2="19.790461" y2="37.849670" id="paint_linear_458_599_0" gradientUnits="userSpaceOnUse">
			<stop offset="0.130000" stop-color="#F1E813"/>
			<stop offset="0.300000" stop-color="#EAE616"/>
			<stop offset="0.530000" stop-color="#D8DF1F"/>
			<stop offset="0.800000" stop-color="#BAD52D"/>
			<stop offset="0.980000" stop-color="#A2CC39"/>
		</linearGradient>
		<linearGradient x1="1.698498" y1="20.557953" x2="7.245365" y2="6.320190" id="paint_linear_458_600_0" gradientUnits="userSpaceOnUse">
			<stop offset="0.070000" stop-color="#A2CC39"/>
			<stop offset="0.260000" stop-color="#81C45E"/>
			<stop offset="0.920000" stop-color="#0FA7DF"/>
		</linearGradient>
	</defs>
	<path d="M35.35 7.77C36.28 8.99 37.08 10.33 37.71 11.74L19.73 25.17L12.22 20.4L12.22 14.66L19.73 19.43L35.35 7.77Z" fill="#21A038" fill-opacity="1.000000" fill-rule="nonzero"/>
	<path d="M4.55 19.99C4.55 19.74 4.56 19.48 4.57 19.23L0.02 19C0 19.33 0 19.66 0 20C-0.01 22.62 0.5 25.22 1.49 27.65C2.49 30.08 3.94 32.28 5.78 34.13L9.01 30.86C7.59 29.44 6.47 27.74 5.71 25.88C4.95 24.01 4.55 22.01 4.55 19.99Z" fill="url(#paint_linear_458_594_0)" fill-opacity="1.000000" fill-rule="nonzero"/>
	<path d="M19.73 4.62C19.99 4.62 20.24 4.62 20.49 4.64L20.72 0.02C20.39 0.01 20.06 0 19.73 0C17.14 0 14.57 0.51 12.18 1.52C9.78 2.52 7.61 4 5.78 5.85L9.01 9.13C10.41 7.7 12.08 6.56 13.92 5.79C15.76 5.01 17.74 4.61 19.73 4.62Z" fill="url(#paint_linear_458_595_0)" fill-opacity="1.000000" fill-rule="nonzero"/>
	<path d="M19.73 35.37C19.48 35.37 19.22 35.37 18.97 35.35L18.74 39.97C19.07 39.99 19.4 39.99 19.73 39.99C22.32 40 24.89 39.48 27.28 38.48C29.67 37.47 31.85 36 33.68 34.14L30.45 30.86C29.05 32.29 27.38 33.43 25.54 34.2C23.7 34.98 21.72 35.38 19.73 35.37Z" fill="url(#paint_linear_458_596_0)" fill-opacity="1.000000" fill-rule="nonzero"/>
	<path d="M28.29 7.3L32.12 4.43C28.62 1.55 24.24 -0.01 19.72 0L19.72 4.61C22.78 4.61 25.77 5.55 28.29 7.3Z" fill="url(#paint_linear_458_597_0)" fill-opacity="1.000000" fill-rule="nonzero"/>
	<path d="M39.47 20C39.47 18.79 39.36 17.59 39.15 16.41L34.91 19.58C34.91 19.72 34.91 19.86 34.91 20C34.91 22.14 34.46 24.27 33.6 26.23C32.74 28.2 31.48 29.96 29.91 31.39L32.97 34.83C35.02 32.95 36.65 30.66 37.77 28.11C38.89 25.55 39.47 22.79 39.47 20Z" fill="#21A038" fill-opacity="1.000000" fill-rule="nonzero"/>
	<path d="M19.73 35.37C17.61 35.38 15.51 34.93 13.58 34.05C11.64 33.18 9.9 31.9 8.48 30.31L5.1 33.41C6.94 35.49 9.2 37.15 11.72 38.28C14.24 39.41 16.97 40 19.73 39.99L19.73 35.37Z" fill="url(#paint_linear_458_599_0)" fill-opacity="1.000000" fill-rule="nonzero"/>
	<path d="M9.55 8.59L6.49 5.16C4.44 7.04 2.81 9.32 1.69 11.88C0.57 14.43 -0.01 17.2 0 19.99L4.55 19.99C4.55 17.84 5 15.72 5.86 13.76C6.72 11.79 7.98 10.03 9.55 8.59Z" fill="url(#paint_linear_458_600_0)" fill-opacity="1.000000" fill-rule="nonzero"/>
</svg>
