<svg width="120.000000" height="36.639648" viewBox="0 0 120 36.6396" fill="none" xmlns="http://www.w3.org/2000/svg" xmlns:xlink="http://www.w3.org/1999/xlink">
	<desc>
			Created with Pixso.
	</desc>
	<defs/>
	<path id="path" d="M12.21 36.63L24.42 24.42L12.21 24.42L12.21 0L0 12.17L0 36.63L12.21 36.63ZM48.86 30.53L55.27 30.53L55.27 11.59L65 11.59L65 30.53L71.4 30.53L71.4 6.11L48.86 6.11L48.86 30.53ZM111.15 15.25L105.67 15.25L105.67 11.59L117.87 11.59L117.87 6.09L99.25 6.09L99.25 30.53L111.45 30.53C116.34 30.53 120 28.08 120 22.88C120 17.7 116.34 15.25 111.14 15.25L111.15 15.25ZM110.53 25.32L105.66 25.32L105.66 20.45L110.53 20.45C112.04 20.45 113.53 21.05 113.53 22.88C113.53 24.71 112 25.32 110.53 25.32ZM87.13 25.32C82.86 25.32 80.44 22.17 80.44 18.32C80.44 15.21 82.2 11.32 87.01 11.32C88.08 11.32 89.15 11.57 90.12 12.04C91.09 12.5 91.95 13.17 92.63 14L96.54 10.11C95.33 8.67 93.83 7.51 92.13 6.72C90.43 5.92 88.58 5.51 86.71 5.51C85.02 5.47 83.34 5.77 81.77 6.4C80.2 7.03 78.78 7.97 77.59 9.17C76.4 10.37 75.46 11.8 74.85 13.37C74.23 14.94 73.94 16.63 74 18.32C73.97 21.01 74.81 23.64 76.38 25.83C77.95 28.02 80.17 29.65 82.73 30.49C85.29 31.34 88.05 31.35 90.61 30.52C93.17 29.7 95.41 28.08 97 25.91L93.08 21.99C92.45 23.02 91.57 23.87 90.52 24.46C89.47 25.04 88.28 25.35 87.08 25.33L87.13 25.32Z" fill="#2C2D84" fill-opacity="1.000000" fill-rule="nonzero"/>
</svg>
