<svg width="143.919922" height="40.000000" viewBox="0 0 143.92 40" fill="none" xmlns="http://www.w3.org/2000/svg" xmlns:xlink="http://www.w3.org/1999/xlink">
	<desc>
			Created with Pixso.
	</desc>
	<defs/>
	<path id="path" d="M40 32.44C40 37.29 37.29 40 32.43 40L7.56 40C2.7 40 0 37.29 0 32.44L0 7.55C0 2.7 2.7 0 7.56 0L32.45 0C37.29 0 40 2.7 40 7.55L40 32.44Z" fill="#FFE600" fill-opacity="1.000000" fill-rule="nonzero"/>
	<path id="path" d="M25.71 18.04L25.71 14.22L27.09 12.84L27.09 16.15L28.29 17.35L33.12 12.52L34.31 13.71C34.3 12.81 34.12 10.2 31.91 8.03C29.53 5.74 26.95 6.77 26.07 7.65L21.25 12.47L22.48 13.71L20 16.21L17.5 13.72L18.73 12.5L13.91 7.67C13.04 6.79 10.45 5.75 8.08 8.05C5.86 10.22 5.68 12.83 5.67 13.73L6.87 12.54L11.69 17.37L12.89 16.17L12.89 12.87L14.27 14.24L14.27 18.06L16.21 20L6.65 29.55L10.43 33.32L20 23.77L29.55 33.33L33.33 29.56L23.77 20L25.71 18.04ZM46.67 21.66L53.88 21.66L53.88 23.93L49.37 23.93L49.37 26.27L50.87 26.27C51.88 26.27 53.18 26.39 54.16 27.35C54.58 27.77 55.1 28.54 55.1 29.77C55.1 30.15 55.05 30.51 54.96 30.84C54.81 31.4 54.54 31.89 54.16 32.27C53.9 32.54 53.6 32.73 53.28 32.89C53.13 32.95 52.98 33.01 52.82 33.06C52.74 33.09 52.66 33.11 52.58 33.13C51.99 33.28 51.33 33.33 50.64 33.33L46.67 33.33L46.67 21.66ZM50.43 31.16C50.8 31.16 51.46 31.13 51.88 30.79C51.96 30.72 52.1 30.58 52.2 30.36C52.27 30.2 52.33 30 52.33 29.75C52.33 29.67 52.32 29.58 52.31 29.51C52.29 29.42 52.27 29.34 52.25 29.27C52.21 29.16 52.16 29.06 52.1 28.98C52.04 28.9 51.98 28.83 51.92 28.77C51.9 28.75 51.87 28.72 51.84 28.7L51.81 28.67C51.39 28.37 50.71 28.37 50.43 28.37L49.36 28.37L49.36 31.17L50.43 31.17L50.43 31.16ZM64.87 25.53L62.36 25.53L62.36 26.41C61.87 25.74 61.22 25.46 60.65 25.34C60.38 25.28 60.12 25.27 59.9 25.27C58.83 25.27 57.88 25.65 57.2 26.33C56.48 27.05 55.99 28.18 55.99 29.49C55.99 30.51 56.31 31.54 57.13 32.41C57.99 33.32 58.93 33.59 60.05 33.59C60.38 33.59 60.79 33.55 61.21 33.37C61.61 33.2 62.02 32.9 62.36 32.38L62.36 33.33L64.87 33.33L64.87 25.53ZM58.58 29.41C58.58 29.03 58.67 28.72 58.8 28.47C58.91 28.27 59.04 28.11 59.16 28C59.49 27.66 59.98 27.44 60.53 27.45C60.99 27.45 61.55 27.62 61.92 27.99C61.99 28.05 62.06 28.12 62.12 28.2C62.18 28.29 62.24 28.39 62.29 28.49C62.43 28.76 62.51 29.08 62.51 29.41C62.51 30.08 62.23 30.58 61.89 30.88C61.73 31.05 61.53 31.18 61.31 31.28C61.09 31.37 60.84 31.42 60.59 31.42C59.98 31.42 59.45 31.19 59.09 30.82C58.87 30.57 58.58 30.12 58.58 29.41ZM66.4 25.53L68.91 25.53L68.91 28.24L71.74 28.24L71.74 25.53L74.26 25.53L74.26 33.33L71.74 33.33L71.74 30.27L68.91 30.27L68.91 33.33L66.4 33.33L66.4 25.53ZM78.28 25.53L75.76 25.53L75.76 33.33L78.28 33.33L78.28 29.87L80.95 33.33L84.2 33.33L80.63 29.15L83.97 25.53L80.83 25.53L78.28 28.63L78.28 25.53ZM50.77 6.66C51.79 6.66 52.91 6.8 53.83 7.62C54.83 8.5 54.97 9.66 54.97 10.46C54.97 11.93 54.41 12.75 53.97 13.21C53.05 14.15 51.83 14.24 51 14.24L49.37 14.24L49.37 18.33L46.67 18.33L46.67 6.66L50.77 6.66ZM49.35 12.04L50.31 12.04C50.46 12.04 50.64 12.03 50.83 12C51.15 11.96 51.5 11.85 51.77 11.6C52 11.35 52.21 10.95 52.21 10.45C52.21 10.22 52.17 10.01 52.1 9.83C52.03 9.62 51.91 9.44 51.77 9.3C51.36 8.93 50.78 8.87 50.26 8.87L49.35 8.87L49.35 12.04ZM64.06 10.53L61.55 10.53L61.55 11.41C61.2 10.94 60.77 10.65 60.35 10.49C59.89 10.31 59.44 10.27 59.09 10.27C58.02 10.27 57.07 10.65 56.39 11.33C55.67 12.05 55.18 13.18 55.18 14.49C55.18 15.15 55.31 15.81 55.63 16.43C55.8 16.77 56.03 17.1 56.32 17.41C57.18 18.32 58.12 18.59 59.24 18.59C59.56 18.59 59.98 18.55 60.39 18.38C60.8 18.2 61.21 17.9 61.55 17.38L61.55 18.33L64.06 18.33L64.06 10.53ZM57.77 14.41C57.77 13.71 58.09 13.26 58.35 13C58.68 12.66 59.18 12.44 59.72 12.45C59.85 12.45 60 12.46 60.14 12.49C60.23 12.51 60.31 12.53 60.4 12.56C60.66 12.65 60.91 12.79 61.11 12.99C61.31 13.17 61.46 13.4 61.56 13.66C61.6 13.77 61.63 13.88 61.66 14C61.67 14.05 61.67 14.1 61.68 14.16C61.68 14.2 61.69 14.24 61.69 14.28C61.69 14.33 61.7 14.37 61.7 14.41C61.7 15.08 61.41 15.58 61.08 15.88C60.91 16.06 60.7 16.2 60.47 16.29C60.37 16.33 60.28 16.36 60.18 16.38L60.07 16.4L59.97 16.41C59.91 16.42 59.84 16.42 59.78 16.42C59.51 16.42 59.26 16.38 59.03 16.3C58.74 16.19 58.48 16.02 58.28 15.82C58.06 15.57 57.77 15.12 57.77 14.41ZM68.1 10.53L68.1 14.99L71.43 10.53L73.77 10.53L73.77 18.33L71.25 18.33L71.25 13.79L67.92 18.33L65.59 18.33L65.59 10.53L68.1 10.53ZM72.85 7.38C72.64 8 72.22 8.54 71.73 8.87C71.07 9.3 70.26 9.36 69.68 9.36C69.1 9.36 68.29 9.3 67.63 8.87C67.57 8.83 67.51 8.79 67.46 8.75C67.39 8.7 67.33 8.65 67.27 8.59C67.21 8.53 67.15 8.46 67.09 8.4C66.84 8.11 66.63 7.76 66.51 7.38L68.25 6.7C68.32 7.04 68.5 7.33 68.71 7.5C68.94 7.68 69.23 7.81 69.67 7.81C69.77 7.81 69.87 7.8 69.96 7.79L70.02 7.78L70.07 7.77L70.14 7.75L70.21 7.73C70.37 7.67 70.51 7.59 70.63 7.5C70.83 7.33 71.01 7.04 71.08 6.7L72.85 7.38ZM79.34 18.45L79.34 22.21L81.88 22.21L81.88 18.45L81.98 18.45C83.75 18.45 84.73 17.71 85.18 17.27C85.41 17.05 85.64 16.76 85.83 16.4C85.86 16.33 85.89 16.27 85.92 16.21L85.98 16.08C86.04 15.92 86.1 15.75 86.15 15.56C86.21 15.34 86.25 15.09 86.28 14.83C86.28 14.75 86.29 14.67 86.29 14.6C86.29 14.53 86.29 14.46 86.29 14.38C86.29 13.88 86.22 13.43 86.09 13.05C85.98 12.7 85.83 12.4 85.67 12.14C85.63 12.08 85.58 12.02 85.54 11.96L85.5 11.91L85.44 11.84C85.28 11.64 85.11 11.48 84.94 11.35C84.17 10.74 83.02 10.41 81.99 10.41L81.87 10.41L81.87 6.66L79.35 6.66L79.35 10.41L79.23 10.41C78.18 10.41 77.03 10.74 76.26 11.35C75.62 11.87 74.91 12.85 74.91 14.38C74.91 15.8 75.48 16.74 76.04 17.27C76.48 17.71 77.47 18.45 79.23 18.45L79.34 18.45ZM78.82 12.49C79.03 12.44 79.25 12.42 79.46 12.44L79.46 16.41C78.82 16.43 78.21 16.2 77.88 15.83C77.58 15.51 77.37 15 77.37 14.4C77.37 13.78 77.58 13.28 77.88 12.97C78.12 12.74 78.46 12.57 78.82 12.49ZM83.31 15.84C82.98 16.2 82.39 16.45 81.74 16.43L81.74 12.45C82.14 12.42 82.56 12.51 82.9 12.69C83.05 12.77 83.19 12.87 83.31 12.99C83.44 13.12 83.56 13.3 83.65 13.51C83.75 13.77 83.82 14.07 83.82 14.4C83.82 15.02 83.61 15.53 83.31 15.84ZM91.46 22.21L91.46 18.45L91.36 18.45C90.79 18.45 90.3 18.37 89.88 18.25C89.66 18.19 89.45 18.11 89.27 18.03C88.74 17.79 88.38 17.5 88.16 17.27C88.08 17.2 88 17.12 87.93 17.03C87.86 16.95 87.8 16.87 87.73 16.78C87.59 16.57 87.46 16.33 87.34 16.06C87.22 15.76 87.13 15.41 87.07 15.02C87.06 14.9 87.05 14.77 87.04 14.65C87.04 14.56 87.04 14.47 87.04 14.38C87.04 12.85 87.74 11.87 88.39 11.35C89.16 10.74 90.31 10.41 91.35 10.41L91.47 10.41L91.47 6.66L93.99 6.66L93.99 10.41L94.11 10.41C94.43 10.41 94.76 10.44 95.09 10.5C95.25 10.53 95.42 10.57 95.58 10.62C95.73 10.66 95.87 10.7 96 10.76C96.4 10.91 96.76 11.11 97.07 11.35C97.72 11.87 98.42 12.85 98.42 14.38C98.42 14.95 98.33 15.44 98.18 15.85C98.06 16.22 97.89 16.54 97.7 16.8C97.57 16.98 97.43 17.14 97.3 17.27C97.01 17.56 96.5 17.96 95.71 18.21C95.5 18.28 95.27 18.33 95.02 18.37C94.74 18.42 94.43 18.45 94.1 18.45L94 18.45L94 22.21L91.46 22.21ZM91.58 12.44C90.99 12.41 90.37 12.6 90.01 12.97C89.71 13.28 89.5 13.78 89.5 14.4C89.5 15 89.71 15.51 90.01 15.83C90.34 16.2 90.94 16.43 91.58 16.41L91.58 12.44ZM93.86 16.43C94.51 16.45 95.1 16.2 95.43 15.84C95.59 15.67 95.72 15.45 95.81 15.19C95.89 14.96 95.94 14.69 95.94 14.4C95.94 13.79 95.73 13.29 95.43 12.99C95.06 12.62 94.45 12.41 93.86 12.45L93.86 16.43ZM108.04 10.53L105.52 10.53L105.52 11.41C104.8 10.43 103.72 10.27 103.07 10.27C101.99 10.27 101.04 10.65 100.36 11.33C99.64 12.05 99.14 13.18 99.14 14.49C99.14 15.14 99.27 15.79 99.58 16.4C99.75 16.75 99.99 17.09 100.29 17.41C101.15 18.32 102.09 18.59 103.21 18.59C103.86 18.59 104.84 18.44 105.52 17.38L105.52 18.33L108.04 18.33L108.04 10.53ZM101.74 14.41C101.74 14.09 101.81 13.82 101.9 13.59C102.02 13.33 102.18 13.13 102.32 13C102.65 12.66 103.16 12.44 103.69 12.45C104.15 12.45 104.71 12.62 105.09 12.99C105.45 13.33 105.67 13.85 105.67 14.41C105.67 15.08 105.39 15.58 105.06 15.88C104.73 16.21 104.26 16.42 103.75 16.42C103.15 16.42 102.61 16.19 102.26 15.82C102.15 15.7 102.02 15.53 101.92 15.31C101.82 15.07 101.74 14.78 101.74 14.41ZM112.08 10.53L112.08 14.99L115.4 10.53L117.74 10.53L117.74 18.33L115.22 18.33L115.22 13.79L111.9 18.33L109.56 18.33L109.56 10.53L112.08 10.53ZM116.82 7.38C116.72 7.67 116.58 7.94 116.4 8.18C116.28 8.35 116.14 8.5 116 8.63C115.9 8.72 115.8 8.8 115.7 8.87C115.53 8.98 115.35 9.06 115.17 9.13C114.96 9.21 114.75 9.26 114.54 9.29C114.22 9.34 113.91 9.36 113.65 9.36C113.07 9.36 112.27 9.3 111.6 8.87C111.11 8.55 110.69 8 110.48 7.38L112.23 6.7C112.3 7.04 112.47 7.33 112.68 7.5C112.79 7.59 112.92 7.67 113.08 7.72C113.23 7.77 113.42 7.81 113.64 7.81C114.08 7.81 114.37 7.68 114.6 7.5C114.7 7.41 114.8 7.29 114.88 7.15C114.95 7.02 115.01 6.87 115.05 6.7L116.82 7.38ZM120.3 10.54C119.88 10.71 119.34 10.98 119.01 11.2L119.99 12.89C120.24 12.67 120.5 12.52 120.83 12.38C121.16 12.23 121.46 12.16 121.86 12.16C122.28 12.16 122.53 12.25 122.65 12.31C122.83 12.39 122.93 12.5 122.98 12.61C123.01 12.68 123.03 12.76 123.03 12.82C123.03 12.97 122.96 13.2 122.66 13.33C122.58 13.37 122.47 13.4 122.35 13.42C122.12 13.46 121.87 13.48 121.72 13.48L121 13.48L121 15.18L121.94 15.18C122.22 15.18 122.64 15.24 122.85 15.33C122.94 15.37 123.03 15.42 123.09 15.49C123.17 15.58 123.22 15.7 123.22 15.84C123.22 15.96 123.19 16.11 123.09 16.25C123.04 16.31 122.97 16.38 122.87 16.43C122.62 16.58 122.24 16.62 121.96 16.62C121.69 16.62 121.4 16.58 121.14 16.52C121 16.48 120.86 16.43 120.75 16.39C120.44 16.25 120.07 16 119.79 15.76L118.72 17.42C118.81 17.5 118.98 17.62 119.19 17.76C119.29 17.83 119.4 17.89 119.53 17.96C119.7 18.06 119.9 18.15 120.12 18.24C120.82 18.5 121.55 18.59 122.25 18.59C123.55 18.59 124.46 18.4 125.12 17.75C125.37 17.49 125.55 17.21 125.65 16.93C125.75 16.66 125.8 16.38 125.8 16.12C125.8 16.05 125.79 15.98 125.79 15.91C125.78 15.87 125.78 15.83 125.77 15.79L125.76 15.7C125.69 15.38 125.55 15.09 125.28 14.83C125.17 14.71 124.81 14.4 124.23 14.26C124.29 14.24 124.34 14.22 124.4 14.19C124.45 14.16 124.5 14.13 124.54 14.1L124.6 14.06C124.64 14.04 124.68 14 124.72 13.97C124.78 13.93 124.83 13.88 124.89 13.83C125.27 13.42 125.36 12.99 125.36 12.5C125.36 12.35 125.34 12.2 125.32 12.06C125.3 11.98 125.28 11.9 125.26 11.82C125.17 11.55 125.02 11.3 124.78 11.06C123.99 10.29 122.56 10.27 122.14 10.27C121.54 10.27 120.89 10.33 120.3 10.54ZM134.92 14.87L129.1 14.87C129.1 15.01 129.11 15.17 129.15 15.34C129.22 15.65 129.36 15.97 129.57 16.19C129.67 16.31 129.78 16.39 129.89 16.46C129.97 16.51 130.06 16.54 130.14 16.58C130.39 16.66 130.65 16.68 130.85 16.68C131 16.68 131.14 16.67 131.27 16.65C131.49 16.62 131.7 16.55 131.87 16.45C131.89 16.43 132.2 16.25 132.41 15.8L134.79 16.04C134.44 17.15 133.74 17.72 133.28 18C132.54 18.45 131.7 18.58 130.82 18.58C129.64 18.58 128.62 18.37 127.71 17.46C127.03 16.78 126.54 15.75 126.54 14.46C126.54 13.33 126.94 12.19 127.73 11.37C128.19 10.91 128.72 10.63 129.24 10.46C129.76 10.3 130.28 10.25 130.72 10.25C131.59 10.25 132.85 10.41 133.82 11.42C134.75 12.41 134.92 13.62 134.92 14.59L134.92 14.87ZM132.6 13.36C132.58 13.29 132.46 12.81 132.09 12.46C131.98 12.36 131.86 12.27 131.73 12.21C131.64 12.16 131.55 12.12 131.45 12.09C131.28 12.04 131.1 12.01 130.89 12.01C130.68 12.01 130.49 12.04 130.33 12.09C130.01 12.19 129.78 12.36 129.62 12.52C129.42 12.74 129.25 13.01 129.17 13.36L132.6 13.36ZM138.58 10.53L136.06 10.53L136.06 18.33L138.58 18.33L138.58 15.27L141.39 15.27L141.39 18.33L143.92 18.33L143.92 10.53L141.39 10.53L141.39 13.24L138.58 13.24L138.58 10.53Z" fill="#2B2D34" fill-opacity="1.000000" fill-rule="evenodd"/>
</svg>
