<svg width="50" height="50" viewBox="0 0 50 50" fill="none" xmlns="http://www.w3.org/2000/svg">
<g clip-path="url(#clip0_1_581)">
<g clip-path="url(#clip1_1_581)">
<g clip-path="url(#clip2_1_581)">
<path d="M40.7743 0H9.2257C4.13049 0 0 4.13049 0 9.2257V40.7743C0 45.8695 4.13049 50 9.2257 50H40.7743C45.8695 50 50 45.8695 50 40.7743V9.2257C50 4.13049 45.8695 0 40.7743 0Z" fill="white"/>
<path d="M32.622 19.4756C32.5393 19.1821 32.3715 18.8694 32.2473 18.5956C30.7611 15.2124 27.5139 14 24.8919 14C21.3819 14 17.5161 16.2294 17 20.8247V21.7636C17 21.8027 17.0143 22.1547 17.0345 22.3307C17.3238 24.5208 19.1482 26.8483 20.5107 29.0383C21.9765 31.3846 23.4976 33.6928 25.0045 36C25.9337 34.4944 26.8596 32.9689 27.7676 31.5023C28.0151 31.0719 28.3024 30.6417 28.5501 30.2309C28.7153 29.9573 29.0307 29.6838 29.1748 29.4293C30.6406 26.8872 33 24.3255 33 21.8027V20.7663C33.0001 20.4928 32.6421 19.5346 32.622 19.4756ZM24.9562 24.1886C23.9244 24.1886 22.7951 23.6999 22.2377 22.3503C22.1546 22.1355 22.1613 21.705 22.1613 21.6655V21.0593C22.1613 19.3389 23.7035 18.5565 25.0452 18.5565C26.6969 18.5565 27.9743 19.8082 27.9743 21.3728C27.9743 22.9373 26.6079 24.1886 24.9562 24.1886Z" fill="#2D2D2C"/>
</g>
</g>
</g>
<defs>
<clipPath id="clip0_1_581">
<rect width="50" height="50" fill="white"/>
</clipPath>
<clipPath id="clip1_1_581">
<rect width="50" height="50" fill="white"/>
</clipPath>
<clipPath id="clip2_1_581">
<rect width="50" height="50" fill="white"/>
</clipPath>
</defs>
</svg>
