<svg width="50" height="50" viewBox="0 0 50 50" fill="none" xmlns="http://www.w3.org/2000/svg">
<g clip-path="url(#clip0_1_595)">
<g clip-path="url(#clip1_1_595)">
<g clip-path="url(#clip2_1_595)">
<path d="M40.7743 0H9.2257C4.13049 0 0 4.13049 0 9.2257V40.7743C0 45.8695 4.13049 50 9.2257 50H40.7743C45.8695 50 50 45.8695 50 40.7743V9.2257C50 4.13049 45.8695 0 40.7743 0Z" fill="white"/>
<path d="M33.5 16V16.9999C33.4989 17.5309 33.287 18.0397 32.9105 18.4142C32.5342 18.7888 32.0242 18.9983 31.4934 18.9964C30.9623 18.9947 30.4538 18.7818 30.08 18.405C29.3849 17.73 29.4999 16.9999 29.4999 16H21.5002V16.9999C21.4992 17.5309 21.2872 18.0397 20.9107 18.4142C20.5344 18.7888 20.0245 18.9983 19.4936 18.9964C18.9626 18.9947 18.454 18.7818 18.0802 18.405C17.3851 17.73 17.5001 16.9999 17.5001 16H15.0002C14.735 16 14.4806 16.1053 14.2931 16.2928C14.1056 16.4803 14.0003 16.7347 14.0003 16.9999V20.9998H36.9999V16.9999C36.9999 16.7347 36.8946 16.4803 36.7071 16.2928C36.5196 16.1053 36.2652 16 36 16H33.5ZM28.4999 18.9999H22.4999C22.2239 18.9999 21.9999 18.7759 21.9999 18.4999C21.9999 18.2238 22.2239 17.9998 22.4999 17.9998H28.4999C28.776 17.9998 29 18.2238 29 18.4999C29 18.7759 28.776 18.9999 28.4999 18.9999Z" fill="#2D2D2C"/>
<path d="M19.4999 17.9999C19.7651 17.9999 20.0196 17.8946 20.2071 17.7071C20.3946 17.5197 20.4999 17.2652 20.4999 17V15C20.4999 14.6427 20.3094 14.3126 20 14.134C19.6906 13.9553 19.3093 13.9553 18.9999 14.134C18.6905 14.3126 18.5 14.6427 18.5 15V17C18.5 17.2652 18.6053 17.5197 18.7928 17.7071C18.9803 17.8946 19.2347 17.9999 19.4999 17.9999Z" fill="#2D2D2C"/>
<path d="M31.4999 17.9999C31.7651 17.9999 32.0195 17.8946 32.207 17.7071C32.3945 17.5197 32.4998 17.2652 32.4998 17V15C32.4998 14.6427 32.3093 14.3126 32 14.134C31.6906 13.9553 31.3092 13.9553 30.9998 14.134C30.6905 14.3126 30.5 14.6427 30.5 15V17C30.5 17.2652 30.6053 17.5197 30.7928 17.7071C30.9803 17.8946 31.2347 17.9999 31.4999 17.9999Z" fill="#2D2D2C"/>
<path d="M33.9998 34.4999L36.4999 32H33.9998V34.4999Z" fill="#2D2D2C"/>
<path d="M22.4999 25.5H23.4999V26.4999H22.4999V25.5Z" fill="#2D2D2C"/>
<path d="M17.4998 30.5H18.4997V31.4999H17.4998V30.5Z" fill="#2D2D2C"/>
<path d="M22.4999 30.5H23.4999V31.4999H22.4999V30.5Z" fill="#2D2D2C"/>
<path d="M27.5001 30.5H28.5V31.4999H27.5001V30.5Z" fill="#2D2D2C"/>
<path d="M32.4998 25.5H33.4997V26.4999H32.4998V25.5Z" fill="#2D2D2C"/>
<path d="M14 33.9999C14 34.2651 14.1053 34.5193 14.2928 34.7068C14.4803 34.8945 14.7347 34.9998 14.9999 34.9998H32.9999V31.4998C32.9999 31.2237 33.2237 30.9999 33.5 30.9999H37L36.9998 22H14.0002L14 33.9999ZM31.4998 25C31.4998 24.7237 31.7236 24.4999 31.9999 24.4999H33.9999C34.1324 24.4999 34.2596 24.5526 34.3533 24.6464C34.4471 24.7401 34.4998 24.8674 34.4998 25V27C34.4998 27.1326 34.4471 27.2597 34.3533 27.3534C34.2596 27.4472 34.1323 27.4999 33.9998 27.4999H31.9999C31.7236 27.4999 31.4998 27.2761 31.4998 26.9998V25ZM26.4997 25C26.4997 24.7237 26.7237 24.4999 26.9997 24.4999H28.9998C29.1324 24.4999 29.2594 24.5526 29.3534 24.6464C29.4471 24.7401 29.4997 24.8674 29.4997 25V27C29.4997 27.1326 29.4471 27.2597 29.3534 27.3534C29.2594 27.4472 29.1324 27.4999 28.9998 27.4999H26.9997C26.7237 27.4999 26.4997 27.2761 26.4997 26.9998V25ZM26.4997 29.9999C26.4997 29.7238 26.7237 29.5 26.9997 29.5H28.9998C29.1324 29.5 29.2594 29.5526 29.3534 29.6463C29.4471 29.7402 29.4997 29.8673 29.4997 29.9999V31.9999C29.4997 32.1325 29.4471 32.2597 29.3534 32.3535C29.2594 32.4472 29.1324 32.5 28.9998 32.5H26.9997C26.7237 32.5 26.4997 32.276 26.4997 31.9999V29.9999ZM21.5 25C21.5 24.7237 21.7238 24.4999 21.9999 24.4999H23.9999C24.1325 24.4999 24.2597 24.5526 24.3535 24.6464C24.4472 24.7401 24.5 24.8674 24.5 25V27C24.5 27.1326 24.4472 27.2597 24.3535 27.3534C24.2597 27.4472 24.1325 27.4999 23.9999 27.4999H21.9999C21.7238 27.4999 21.5 27.2761 21.5 26.9998V25ZM21.5 29.9999C21.5 29.7238 21.7238 29.5 21.9999 29.5H23.9999C24.1325 29.5 24.2597 29.5526 24.3535 29.6463C24.4472 29.7402 24.5 29.8673 24.5 29.9999V31.9999C24.5 32.1325 24.4472 32.2597 24.3535 32.3535C24.2597 32.4472 24.1325 32.5 23.9999 32.5H21.9999C21.7238 32.5 21.5 32.276 21.5 31.9999V29.9999ZM16.4999 29.9999C16.4999 29.7238 16.7237 29.5 16.9999 29.5H19C19.1326 29.5 19.2596 29.5526 19.3534 29.6463C19.4471 29.7402 19.4998 29.8673 19.4998 29.9999V31.9999C19.4998 32.1325 19.4471 32.2597 19.3534 32.3535C19.2596 32.4472 19.1324 32.5 18.9998 32.5H16.9999C16.7237 32.5 16.4999 32.276 16.4999 31.9999V29.9999Z" fill="#2D2D2C"/>
<path d="M27.5001 25.5H28.5V26.4999H27.5001V25.5Z" fill="#2D2D2C"/>
</g>
</g>
</g>
<defs>
<clipPath id="clip0_1_595">
<rect width="50" height="50" fill="white"/>
</clipPath>
<clipPath id="clip1_1_595">
<rect width="50" height="50" fill="white"/>
</clipPath>
<clipPath id="clip2_1_595">
<rect width="50" height="50" fill="white"/>
</clipPath>
</defs>
</svg>
