<svg width="50" height="50" viewBox="0 0 50 50" fill="none" xmlns="http://www.w3.org/2000/svg">
<g clip-path="url(#clip0_1_611)">
<g clip-path="url(#clip1_1_611)">
<g clip-path="url(#clip2_1_611)">
<path d="M40.7743 0H9.2257C4.13049 0 0 4.13049 0 9.2257V40.7743C0 45.8695 4.13049 50 9.2257 50H40.7743C45.8695 50 50 45.8695 50 40.7743V9.2257C50 4.13049 45.8695 0 40.7743 0Z" fill="white"/>
<path d="M33.3859 30.2365L30.7331 28.3827C30.3862 28.1412 29.9807 28.0134 29.5602 28.0134C28.8914 28.0134 28.2638 28.3413 27.8815 28.89L27.2657 29.7726C26.2336 29.0804 25.0818 28.1138 23.9843 27.0162C22.8866 25.9185 21.9201 24.7667 21.2284 23.7345L22.1103 23.1189C23.0362 22.474 23.2639 21.1947 22.6175 20.2665L20.7643 17.6139C20.3766 17.0594 19.7512 16.7285 19.0914 16.7285C18.8629 16.7285 18.6385 16.7686 18.4248 16.8476C18.1825 16.9374 17.9567 17.0472 17.7352 17.1862L17.3689 17.4441C17.2773 17.5155 17.1922 17.5933 17.1106 17.6748C16.6637 18.1217 16.3464 18.6872 16.1677 19.3559C15.4041 22.2187 17.2957 26.5469 20.8747 30.1262C23.8801 33.1319 27.4909 34.9993 30.2976 34.9995C30.7779 34.9995 31.2311 34.9435 31.6442 34.8335C32.3128 34.6548 32.8782 34.3374 33.3245 33.8909C33.4063 33.8096 33.4842 33.7242 33.5674 33.6164L33.8257 33.2477C33.9523 33.0449 34.0621 32.819 34.152 32.5762C34.4643 31.7324 34.1494 30.7702 33.3859 30.2365Z" fill="#2D2D2C"/>
<path d="M32.0211 18.9795C30.2562 17.2142 27.9133 16.1565 25.4241 16.0009C25.1997 15.9859 25.004 16.1585 24.9898 16.384C24.9756 16.6098 25.1472 16.8041 25.3729 16.8183C27.6628 16.9615 29.8181 17.9347 31.4421 19.5585C33.0656 21.1822 34.0385 23.3375 34.1818 25.6276C34.1954 25.8446 34.3756 26.0115 34.5901 26.0115C34.5987 26.0115 34.6073 26.0113 34.6161 26.0107C34.8418 25.9965 35.0134 25.8022 34.9992 25.5764C34.8434 23.0872 33.7857 20.7443 32.0211 18.9795Z" fill="#2D2D2C"/>
<path d="M25.2193 19.2702C26.9118 19.3762 28.5047 20.0954 29.7048 21.2956C30.9046 22.4957 31.6238 24.0886 31.7298 25.7808C31.7434 25.9977 31.9235 26.1647 32.138 26.1647C32.1466 26.1647 32.1552 26.1645 32.164 26.1639C32.3898 26.1497 32.5613 25.9554 32.5471 25.7296C32.4288 23.838 31.625 22.0576 30.2838 20.7165C28.9426 19.3752 27.1622 18.5712 25.2705 18.4528C25.044 18.4402 24.8505 18.6103 24.8363 18.8359C24.8221 19.0616 24.9936 19.256 25.2193 19.2702Z" fill="#2D2D2C"/>
<path d="M25.0658 21.7227C26.1605 21.7913 27.1909 22.2566 27.9675 23.033C28.7439 23.8096 29.2091 24.84 29.2779 25.9346C29.2915 26.1517 29.4719 26.3185 29.6862 26.3185C29.6948 26.3185 29.7036 26.3183 29.7122 26.3177C29.9379 26.3035 30.1095 26.1089 30.0953 25.8834C30.0141 24.5895 29.4641 23.3717 28.5465 22.4539C27.6288 21.5363 26.4108 20.9862 25.117 20.9052C24.8882 20.8899 24.6969 21.0628 24.6827 21.2884C24.6685 21.5141 24.8401 21.7085 25.0658 21.7227Z" fill="#2D2D2C"/>
</g>
</g>
</g>
<defs>
<clipPath id="clip0_1_611">
<rect width="50" height="50" fill="white"/>
</clipPath>
<clipPath id="clip1_1_611">
<rect width="50" height="50" fill="white"/>
</clipPath>
<clipPath id="clip2_1_611">
<rect width="50" height="50" fill="white"/>
</clipPath>
</defs>
</svg>
