<svg width="124" height="21" viewBox="0 0 124 21" fill="none" xmlns="http://www.w3.org/2000/svg">
<g clip-path="url(#clip0_1_552)">
<g clip-path="url(#clip1_1_552)">
<g clip-path="url(#clip2_1_552)">
<path d="M87.6041 0L90.1594 6.36328L97.0008 6.82717L91.7387 11.2238L93.4116 17.8738L87.6041 14.2277L81.7964 17.8738L83.4693 11.2238L78.2072 6.82717L85.0486 6.36328L87.6041 0Z" fill="#FFCC00"/>
<path d="M113.506 0L116.062 6.36328L122.903 6.82717L117.641 11.2238L119.314 17.8738L113.506 14.2277L107.699 17.8738L109.372 11.2238L104.11 6.82717L110.951 6.36328L113.506 0Z" fill="#FFCC00"/>
<path d="M61.7016 0L64.2569 6.36328L71.0985 6.82717L65.8362 11.2238L67.5091 17.8738L61.7016 14.2277L55.8941 17.8738L57.567 11.2238L52.3049 6.82717L59.1463 6.36328L61.7016 0Z" fill="#FFCC00"/>
<path d="M35.8028 0L38.3581 6.36328L45.1995 6.82717L39.9374 11.2238L41.6103 17.8738L35.8028 14.2277L29.9952 17.8738L31.6682 11.2238L26.4059 6.82717L33.2475 6.36328L35.8028 0Z" fill="#FFCC00"/>
<path d="M9.90036 0L12.4557 6.36328L19.2971 6.82717L14.0349 11.2238L15.7079 17.8738L9.90036 14.2277L4.09282 17.8738L5.76578 11.2238L0.503571 6.82717L7.34505 6.36328L9.90036 0Z" fill="#FFCC00"/>
</g>
</g>
</g>
<defs>
<clipPath id="clip0_1_552">
<rect width="124" height="20.66" fill="white"/>
</clipPath>
<clipPath id="clip1_1_552">
<rect width="124" height="20.66" fill="white"/>
</clipPath>
<clipPath id="clip2_1_552">
<rect width="123.96" height="20.66" fill="white" transform="translate(0.019989)"/>
</clipPath>
</defs>
</svg>
